<svg xmlns="http://www.w3.org/2000/svg" xmlns:xlink="http://www.w3.org/1999/xlink" contentStyleType="text/css" data-diagram-type="DESCRIPTION" height="915px" preserveAspectRatio="none" style="width:1285px;height:915px;background:#FEFEFE;" version="1.1" viewBox="0 0 1285 915" width="1285px" zoomAndPan="magnify"><?plantuml 1.2026.6?><defs/><g><rect fill="#FEFEFE" height="915" style="stroke:none;stroke-width:1;" width="1285" x="0" y="0"/><g class="title" data-source-line="19"><text fill="#000000" font-family="sans-serif" font-size="14" font-weight="700" lengthAdjust="spacing" textLength="298.7373" x="489.6313" y="24.5332">AuraBeauty BI - Diagram Kasus Penggunaan</text><text fill="#000000" font-family="sans-serif" font-size="14" font-weight="700" lengthAdjust="spacing" textLength="346.2402" x="465.8799" y="42.1426">Analisis Keranjang Belanja &amp; Manajemen Overstock</text></g><!--cluster AuraBeauty BI Console--><g class="cluster" data-qualified-name="AuraBeauty BI Console" data-source-line="26" id="ent0003"><rect fill="#F5F5F5" height="435" rx="2.5" ry="2.5" style="stroke:#424242;stroke-width:1;" width="1071" x="200" y="390.3388"/><text fill="#000000" font-family="sans-serif" font-size="14" font-weight="700" lengthAdjust="spacing" textLength="155.5859" x="657.707" y="406.872">AuraBeauty BI Console</text></g><!--entity UC_View--><g class="entity" data-qualified-name="AuraBeauty BI Console.UC_View" data-source-line="27" id="ent0004"><ellipse cx="748.1264" cy="520.264" fill="#E3F2FD" rx="95.1264" ry="21.4253" style="stroke:#1565C0;stroke-width:0.5;"/><text fill="#000000" font-family="sans-serif" font-size="14" lengthAdjust="spacing" textLength="161.8545" x="667.1992" y="525.5687">Melihat Dashboard Apriori</text></g><!--entity UC_Run--><g class="entity" data-qualified-name="AuraBeauty BI Console.UC_Run" data-source-line="28" id="ent0005"><ellipse cx="355.3355" cy="529.5058" fill="#E3F2FD" rx="101.3355" ry="22.6671" style="stroke:#1565C0;stroke-width:0.5;"/><text fill="#000000" font-family="sans-serif" font-size="14" lengthAdjust="spacing" textLength="175.8613" x="267.4048" y="534.8105">Menjalankan Analisis Apriori</text></g><!--entity UC_Filter--><g class="entity" data-qualified-name="AuraBeauty BI Console.UC_Filter" data-source-line="29" id="ent0006"><ellipse cx="355.6837" cy="609.1755" fill="#E3F2FD" rx="97.1837" ry="21.8367" style="stroke:#1565C0;stroke-width:0.5;"/><text fill="#000000" font-family="sans-serif" font-size="14" lengthAdjust="spacing" textLength="166.5234" x="272.422" y="614.4802">Menyaring Aturan Asosiasi</text></g><!--entity UC_Export--><g class="entity" data-qualified-name="AuraBeauty BI Console.UC_Export" data-source-line="30" id="ent0007"><ellipse cx="355.2947" cy="449.2977" fill="#E3F2FD" rx="100.2947" ry="22.4589" style="stroke:#1565C0;stroke-width:0.5;"/><text fill="#000000" font-family="sans-serif" font-size="14" lengthAdjust="spacing" textLength="173.5303" x="268.5295" y="454.6024">Mengekspor Aturan ke CSV</text></g><!--entity UC_Overstock--><g class="entity" data-qualified-name="AuraBeauty BI Console.UC_Overstock" data-source-line="31" id="ent0008"><ellipse cx="1127.959" cy="451.3306" fill="#E3F2FD" rx="112.959" ry="24.9918" style="stroke:#1565C0;stroke-width:0.5;"/><text fill="#000000" font-family="sans-serif" font-size="14" lengthAdjust="spacing" textLength="201.5234" x="1027.1973" y="456.6352">Melihat Rekomendasi Overstock</text></g><!--entity UC_Charts--><g class="entity" data-qualified-name="AuraBeauty BI Console.UC_Charts" data-source-line="32" id="ent0009"><ellipse cx="1128.0208" cy="539.1429" fill="#E3F2FD" rx="127.0208" ry="27.8042" style="stroke:#1565C0;stroke-width:0.5;"/><text fill="#000000" font-family="sans-serif" font-size="14" lengthAdjust="spacing" textLength="231.8887" x="1012.0764" y="544.4476">Melihat Grafik Support vs Confidence</text></g><!--entity UC_PythonPath--><g class="entity" data-qualified-name="AuraBeauty BI Console.UC_PythonPath" data-source-line="33" id="ent0010"><ellipse cx="355.6294" cy="786.5646" fill="#E3F2FD" rx="104.1294" ry="23.2259" style="stroke:#1565C0;stroke-width:0.5;"/><text fill="#000000" font-family="sans-serif" font-size="14" lengthAdjust="spacing" textLength="182.0889" x="264.5849" y="791.8693">Mengatur Jalur Mesin Python</text></g><!--entity UC_Threshold--><g class="entity" data-qualified-name="AuraBeauty BI Console.UC_Threshold" data-source-line="34" id="ent0011"><ellipse cx="355.4709" cy="697.1329" fill="#E3F2FD" rx="139.4709" ry="30.2942" style="stroke:#1565C0;stroke-width:0.5;"/><text fill="#000000" font-family="sans-serif" font-size="14" lengthAdjust="spacing" textLength="258.3506" x="226.2957" y="702.4376">Mengonfigurasi Ambang Batas Overstock</text></g><!--entity User--><g class="entity" data-qualified-name="User" data-source-line="23" id="ent0001"><ellipse cx="79.5513" cy="363.8388" fill="#FFF3E0" rx="8" ry="8" style="stroke:#E65100;stroke-width:0.5;"/><path d="M79.5513,371.8388 L79.5513,398.8388 M66.5513,379.8388 L92.5513,379.8388 M79.5513,398.8388 L66.5513,413.8388 M79.5513,398.8388 L92.5513,413.8388" fill="none" style="stroke:#E65100;stroke-width:0.5;"/><text fill="#000000" font-family="sans-serif" font-size="14" lengthAdjust="spacing" textLength="147.1025" x="6" y="429.872">Analis Data / Pengguna</text></g><!--entity Admin--><g class="entity" data-qualified-name="Admin" data-source-line="24" id="ent0002"><ellipse cx="79.5723" cy="716.8388" fill="#FFF3E0" rx="8" ry="8" style="stroke:#E65100;stroke-width:0.5;"/><path d="M79.5723,724.8388 L79.5723,751.8388 M66.5723,732.8388 L92.5723,732.8388 M79.5723,751.8388 L66.5723,766.8388 M79.5723,751.8388 L92.5723,766.8388" fill="none" style="stroke:#E65100;stroke-width:0.5;"/><text fill="#000000" font-family="sans-serif" font-size="14" lengthAdjust="spacing" textLength="129.1445" x="15" y="782.872">Administrator Sistem</text></g><g class="entity" data-qualified-name="GMN23" data-source-line="52" id="ent0024"><path d="M612,841.8388 L612,900.8934 L884.3228,900.8934 L884.3228,851.8388 L874.3228,841.8388 L612,841.8388" fill="#FEFFDD" style="stroke:#181818;stroke-width:0.5;"/><path d="M874.3228,841.8388 L874.3228,851.8388 L884.3228,851.8388 L874.3228,841.8388" fill="#FEFFDD" style="stroke:#181818;stroke-width:1;"/><text fill="#000000" font-family="sans-serif" font-size="13" lengthAdjust="spacing" textLength="251.3228" x="618" y="860.3339">Pengguna menekan tombol "Run Analysis";</text><text fill="#000000" font-family="sans-serif" font-size="13" lengthAdjust="spacing" textLength="245.667" x="618" y="876.6854">Laravel mengeksekusi skrip Python Apriori</text><text fill="#000000" font-family="sans-serif" font-size="13" lengthAdjust="spacing" textLength="231.9561" x="618" y="893.037">dan meregenerasi association_rules.csv</text></g><g class="entity" data-qualified-name="GMN26" data-source-line="58" id="ent0027"><path d="M1002,298.8388 L1002,374.245 A0,0 0 0 0 1002,374.245 L1124,374.245 L1128,426.1788 L1132,374.245 L1253.5088,374.245 A0,0 0 0 0 1253.5088,374.245 L1253.5088,308.8388 L1243.5088,298.8388 L1002,298.8388 A0,0 0 0 0 1002,298.8388" fill="#FEFFDD" style="stroke:#181818;stroke-width:0.5;"/><path d="M1243.5088,298.8388 L1243.5088,308.8388 L1253.5088,308.8388 L1243.5088,298.8388" fill="#FEFFDD" style="stroke:#181818;stroke-width:0.5;"/><text fill="#000000" font-family="sans-serif" font-size="13" lengthAdjust="spacing" textLength="230.5088" x="1008" y="317.3339">Sistem membandingkan aturan asosiasi</text><text fill="#000000" font-family="sans-serif" font-size="13" lengthAdjust="spacing" textLength="218.9751" x="1008" y="333.6854">dengan inventori overstock yang telah</text><text fill="#000000" font-family="sans-serif" font-size="13" lengthAdjust="spacing" textLength="220.4351" x="1008" y="350.037">ditentukan untuk menyarankan bundel</text><text fill="#000000" font-family="sans-serif" font-size="13" lengthAdjust="spacing" textLength="125.7915" x="1008" y="366.3886">pengosongan gudang</text></g><!--link User to UC_View--><g class="link" data-entity-1="ent0001" data-entity-2="ent0004" data-link-type="dependency" data-source-line="36" id="lnk12"><path d="M153.13,388.5988 C236.77,383.8987 377.74,381.8887 495,409.3388 C576.92,428.5188 660.9461,471.3482 708.1861,497.7682" fill="none" id="User-to-UC_View" style="stroke:#1565C0;stroke-width:1;"/><polygon fill="#1565C0" points="712.55,500.2088,706.6475,492.3246,708.1861,497.7682,702.7425,499.3068,712.55,500.2088" style="stroke:#1565C0;stroke-width:1;stroke-linejoin:miter;stroke-miterlimit:10;"/></g><!--link User to UC_Run--><g class="link" data-entity-1="ent0001" data-entity-2="ent0005" data-link-type="dependency" data-source-line="37" id="lnk13"><path d="M117.47,433.5488 C137.77,452.9488 164.39,475.1888 192,489.3388 C216.44,501.8588 240.0965,509.471 266.3865,515.501" fill="none" id="User-to-UC_Run" style="stroke:#1565C0;stroke-width:1;"/><polygon fill="#1565C0" points="271.26,516.6188,263.382,510.708,266.3865,515.501,261.5935,518.5055,271.26,516.6188" style="stroke:#1565C0;stroke-width:1;stroke-linejoin:miter;stroke-miterlimit:10;"/></g><!--link User to UC_Filter--><g class="link" data-entity-1="ent0001" data-entity-2="ent0006" data-link-type="dependency" data-source-line="38" id="lnk14"><path d="M95.22,433.6588 C112.33,473.8988 144.44,535.2088 192,569.3388 C213.72,584.9188 235.9334,593.3649 261.7334,599.2049" fill="none" id="User-to-UC_Filter" style="stroke:#1565C0;stroke-width:1;"/><polygon fill="#1565C0" points="266.61,600.3088,258.7152,594.4205,261.7334,599.2049,256.949,602.2231,266.61,600.3088" style="stroke:#1565C0;stroke-width:1;stroke-linejoin:miter;stroke-miterlimit:10;"/></g><!--link User to UC_Export--><g class="link" data-entity-1="ent0001" data-entity-2="ent0007" data-link-type="dependency" data-source-line="39" id="lnk15"><path d="M153.21,408.9288 C192.37,416.7988 235.6877,425.4953 275.1177,433.4053" fill="none" id="User-to-UC_Export" style="stroke:#1565C0;stroke-width:1;"/><polygon fill="#1565C0" points="280.02,434.3888,271.9826,428.6967,275.1177,433.4053,270.409,436.5404,280.02,434.3888" style="stroke:#1565C0;stroke-width:1;stroke-linejoin:miter;stroke-miterlimit:10;"/></g><!--link User to UC_Overstock--><g class="link" data-entity-1="ent0001" data-entity-2="ent0008" data-link-type="dependency" data-source-line="40" id="lnk16"><path d="M102.14,355.0688 C119.85,327.3688 147.69,292.4388 183,276.3388 C501.66,131.0488 693.86,62.2188 971,276.3388 C1012.8,308.6287 967.35,350.6287 1001,391.3388 C1015.9,409.3588 1032.8839,420.3269 1053.9739,429.4869" fill="none" id="User-to-UC_Overstock" style="stroke:#1565C0;stroke-width:1;"/><polygon fill="#1565C0" points="1058.56,431.4788,1051.8985,424.2245,1053.9739,429.4869,1048.7115,431.5623,1058.56,431.4788" style="stroke:#1565C0;stroke-width:1;stroke-linejoin:miter;stroke-miterlimit:10;"/></g><!--link User to UC_Charts--><g class="link" data-entity-1="ent0001" data-entity-2="ent0009" data-link-type="dependency" data-source-line="41" id="lnk17"><path d="M153.11,364.7888 C163.33,362.5187 173.82,361.1588 184,361.3388 C536.26,367.5688 667.39,277.5988 971,456.3388 C989.24,467.0788 983.77,481.0388 1001,493.3388 C1014.84,503.2088 1026.3815,509.3573 1042.4615,515.7273" fill="none" id="User-to-UC_Charts" style="stroke:#1565C0;stroke-width:1;"/><polygon fill="#1565C0" points="1047.11,517.5688,1040.2158,510.5352,1042.4615,515.7273,1037.2694,517.9729,1047.11,517.5688" style="stroke:#1565C0;stroke-width:1;stroke-linejoin:miter;stroke-miterlimit:10;"/></g><!--link Admin to UC_PythonPath--><g class="link" data-entity-1="ent0002" data-entity-2="ent0010" data-link-type="dependency" data-source-line="43" id="lnk18"><path d="M144.05,756.3888 C180.81,761.6188 222.6299,767.5641 262.7399,773.2741" fill="none" id="Admin-to-UC_PythonPath" style="stroke:#1565C0;stroke-width:1;"/><polygon fill="#1565C0" points="267.69,773.9788,259.3436,768.7502,262.7399,773.2741,258.2161,776.6704,267.69,773.9788" style="stroke:#1565C0;stroke-width:1;stroke-linejoin:miter;stroke-miterlimit:10;"/></g><!--link Admin to UC_Threshold--><g class="link" data-entity-1="ent0002" data-entity-2="ent0011" data-link-type="dependency" data-source-line="44" id="lnk19"><path d="M144.05,735.7388 C174.88,730.1188 207.8312,724.1061 242.9112,717.7061" fill="none" id="Admin-to-UC_Threshold" style="stroke:#1565C0;stroke-width:1;"/><polygon fill="#1565C0" points="247.83,716.8088,238.2582,714.489,242.9112,717.7061,239.6941,722.3591,247.83,716.8088" style="stroke:#1565C0;stroke-width:1;stroke-linejoin:miter;stroke-miterlimit:10;"/></g><!--link UC_View to UC_Overstock--><g class="link" data-entity-1="ent0004" data-entity-2="ent0008" data-link-type="dependency" data-source-line="46" id="lnk20"><path d="M822.78,506.8688 C885.09,495.4988 969.4913,480.0865 1035.2413,468.0865" fill="none" id="UC_View-to-UC_Overstock" style="stroke:#1565C0;stroke-width:1;stroke-dasharray:7,7;"/><polygon fill="#1565C0" points="1040.16,467.1888,1030.5881,464.8696,1035.2413,468.0865,1032.0244,472.7396,1040.16,467.1888" style="stroke:#1565C0;stroke-width:1;stroke-linejoin:miter;stroke-miterlimit:10;"/><text fill="#000000" font-family="sans-serif" font-size="13" lengthAdjust="spacing" textLength="55.6563" x="915" y="478.8339">&#171;include&#187;</text></g><!--link UC_View to UC_Charts--><g class="link" data-entity-1="ent0004" data-entity-2="ent0009" data-link-type="dependency" data-source-line="47" id="lnk21"><path d="M840.99,524.9588 C889.94,527.4188 945.8063,530.2271 998.7863,532.8971" fill="none" id="UC_View-to-UC_Charts" style="stroke:#1565C0;stroke-width:1;stroke-dasharray:7,7;"/><polygon fill="#1565C0" points="1003.78,533.1488,994.9927,528.7008,998.7863,532.8971,994.5901,536.6907,1003.78,533.1488" style="stroke:#1565C0;stroke-width:1;stroke-linejoin:miter;stroke-miterlimit:10;"/><text fill="#000000" font-family="sans-serif" font-size="13" lengthAdjust="spacing" textLength="55.6563" x="915" y="525.8339">&#171;include&#187;</text></g><!--link UC_Run to UC_View--><g class="link" data-entity-1="ent0005" data-entity-2="ent0004" data-link-type="dependency" data-source-line="48" id="lnk22"><path d="M456.56,527.0288 C517.12,525.6388 588.8613,523.9841 648.2413,522.6141" fill="none" id="UC_Run-to-UC_View" style="stroke:#1565C0;stroke-width:1;stroke-dasharray:7,7;"/><polygon fill="#1565C0" points="653.24,522.4988,644.1501,518.7074,648.2413,522.6141,644.3347,526.7053,653.24,522.4988" style="stroke:#1565C0;stroke-width:1;stroke-linejoin:miter;stroke-miterlimit:10;"/><text fill="#000000" font-family="sans-serif" font-size="13" lengthAdjust="spacing" textLength="55.6563" x="526" y="520.8339">&#171;include&#187;</text></g><!--link UC_Run to GMN23--><g class="link" data-entity-1="ent0005" data-entity-2="ent0024" data-link-type="association" data-source-line="52" id="lnk25"><path d="M441.38,541.5188 C460.63,547.4488 479.84,556.2588 495,569.3388 C589.74,651.0388 519.22,741.4288 612,825.3388 C618.98,831.6488 626.86,837.0988 635.22,841.8088" fill="none" id="UC_Run-GMN23" style="stroke:#1565C0;stroke-width:1;stroke-dasharray:7,7;"/></g><?plantuml-src TLJRRjf047ttLqofrBUakJHvQAD8G73KfccZ9CrJfMYm1tlZPHVjhabHrN_lZ2zW0y4Ic9qvPsvdzbrACsK8xYVZn-6Fw-yJI3Hw7qM-K6Q13kSmnQJ8d2rDEhRQEdWVJ-JfU9IU4lG4VoFWpsZRVt8QdyHNjSswb5npVdnsVZO-giw7pjdN_l6_JW1C0blUe8_Z-7Hoj4i_EJyxFkhpE4e2cao_cMfy9iykrwSJUPWh2YemV5Ww716MOGMZht00Lmep2N23llHmHoRBIeDeVfkXGQsyyd133iqBHuSHQNc33t2B1bzeJWP-BidvO9CYYZJD0WGBJcLvW5H9qigQAAgxCAWPuGe3miTrh06WXr-UtDejdIkZV70eVn_uZUQLKsM8eaql1lrgnjPugsdGzAWTxk2MjCenS62VJosw58OBfwnJTUZnyvEYrsq8ryd55cXWtOWjr7rfTa0hT8eRDGoS62EzzGhz6X4h7RZERL16XLzmgGsg81W_FBMOoHysXVq5tLDXUGOfXzZCeGLk1hCNU-rmfWfuA1V23qilxPkfb4n2BSKuHnVyRhx8YS8trFnzIruPk5k5t9eMLl-xmv3lGYL6ncLoniFvj18Loy7lfl-OE_AvrMbKaOX0uE3WiZUkxc4xZUvPfz_TuqvBkyVzXdKjJH_gXHSHjeQjIdksxGBglE7mi1yCFiF5XJA9BbEwlDpdMaVVxyTLjsuLfE_4Mszie6OXxMpJftRvWEL38l9WvrEhOI248lWL2txmXJs_y_sp92sEebCgIXwTBvnQD5Dlru9zKoQQawECIQiHyuLi4uLo2poxKfC_JFmoOiM2vDLaDxM1epVfTOTGhpupYb1ItYj95EibmMQr9Aeeqe0oIp9yOoYmwzwkH621RosPJwe2EvH2KiglbCJxMY_vbAzIqkor495wMr5c9LUKRVBz3m00?></g></svg>