<svg xmlns="http://www.w3.org/2000/svg" xmlns:xlink="http://www.w3.org/1999/xlink" contentStyleType="text/css" data-diagram-type="CLASS" height="1185px" preserveAspectRatio="none" style="width:1617px;height:1185px;background:#FEFEFE;" version="1.1" viewBox="0 0 1617 1185" width="1617px" zoomAndPan="magnify"><?plantuml 1.2026.6?><defs/><g><rect fill="#FEFEFE" height="1185" style="stroke:none;stroke-width:1;" width="1617" x="0" y="0"/><g class="title" data-source-line="11"><text fill="#000000" font-family="sans-serif" font-size="14" font-weight="700" lengthAdjust="spacing" textLength="260.6338" x="674.8384" y="24.5332">AuraBeauty BI - Diagram Relasi Entitas</text><text fill="#000000" font-family="sans-serif" font-size="14" font-weight="700" lengthAdjust="spacing" textLength="140.0479" x="735.1313" y="42.1426">Konsep Star Schema</text></g><!--class dim_products--><g class="entity" data-qualified-name="dim_products" data-source-line="13" id="ent0001"><rect fill="#E3F2FD" height="453.0156" rx="2.5" ry="2.5" style="stroke:#1565C0;stroke-width:0.5;" width="229.1025" x="600.5" y="63.2188"/><ellipse cx="668.7808" cy="79.2188" fill="#ADD1B2" rx="11" ry="11" style="stroke:#181818;stroke-width:1;"/><path d="M667.6401,80.0156 L667.6401,82.5156 L671.9683,82.5156 L671.9683,81.5938 Q671.9683,80.9844 672.2026,80.7188 Q672.4526,80.4531 672.8276,80.4531 Q673.2026,80.4531 673.437,80.7188 Q673.6714,80.9844 673.6714,81.5938 L673.6714,84.2188 L665.6714,84.2188 Q665.0464,84.2188 664.7808,83.9844 Q664.5308,83.75 664.5308,83.3594 Q664.5308,82.9844 664.7964,82.75 Q665.062,82.5156 665.6714,82.5156 L665.937,82.5156 L665.937,75.8594 L665.6714,75.8594 Q665.0464,75.8594 664.7808,75.625 Q664.5308,75.3906 664.5308,75 Q664.5308,74.625 664.7808,74.3906 Q665.0464,74.1563 665.6714,74.1563 L673.2964,74.1563 L673.2964,76.75 Q673.2964,77.3594 673.062,77.625 Q672.8433,77.875 672.4526,77.875 Q672.0776,77.875 671.8433,77.625 Q671.6089,77.3594 671.6089,76.75 L671.6089,75.8594 L667.6401,75.8594 L667.6401,78.3125 L669.1245,78.3125 Q669.1245,77.6563 669.2495,77.4688 Q669.5151,77.0625 669.9839,77.0625 Q670.3589,77.0625 670.5933,77.3281 Q670.8276,77.5781 670.8276,78.1875 L670.8276,80.1563 Q670.8276,80.7031 670.7026,80.8906 Q670.437,81.2813 669.9839,81.2813 Q669.5151,81.2813 669.2495,80.875 Q669.1245,80.6875 669.1245,80.0156 L667.6401,80.0156 Z " fill="#000000"/><text fill="#000000" font-family="sans-serif" font-size="14" lengthAdjust="spacing" textLength="84.041" x="689.2808" y="84.9473">dim_products</text><line style="stroke:#1565C0;stroke-width:0.5;" x1="601.5" x2="828.6025" y1="95.2188" y2="95.2188"/><g data-visibility-modifier="IE_MANDATORY"><ellipse cx="611.5" cy="109.5234" fill="#000000" rx="3" ry="3" style="stroke:#000000;stroke-width:1;"/></g><text fill="#000000" font-family="sans-serif" font-size="14" lengthAdjust="spacing" textLength="203.1025" x="620.5" y="113.752">product_code : VARCHAR &#171;PK&#187;</text><line style="stroke:#1565C0;stroke-width:1;" x1="601.5" x2="828.6025" y1="120.8281" y2="120.8281"/><text fill="#000000" font-family="sans-serif" font-size="14" lengthAdjust="spacing" textLength="169.627" x="606.5" y="139.3613">product_name : VARCHAR</text><text fill="#000000" font-family="sans-serif" font-size="14" lengthAdjust="spacing" textLength="133.8203" x="606.5" y="156.9707">category : VARCHAR</text><text fill="#000000" font-family="sans-serif" font-size="14" lengthAdjust="spacing" textLength="164.1787" x="606.5" y="174.5801">sub_category : VARCHAR</text><text fill="#000000" font-family="sans-serif" font-size="14" lengthAdjust="spacing" textLength="118.2686" x="606.5" y="192.1895">shade : VARCHAR</text><text fill="#000000" font-family="sans-serif" font-size="14" lengthAdjust="spacing" textLength="147.0547" x="606.5" y="209.7988">finish_type : VARCHAR</text><text fill="#000000" font-family="sans-serif" font-size="14" lengthAdjust="spacing" textLength="182.8545" x="606.5" y="227.4082">skin_type_target : VARCHAR</text><text fill="#000000" font-family="sans-serif" font-size="14" lengthAdjust="spacing" textLength="81.6758" x="606.5" y="245.0176">size_ml : INT</text><text fill="#000000" font-family="sans-serif" font-size="14" lengthAdjust="spacing" textLength="110.4961" x="606.5" y="262.627">launch_year : INT</text><text fill="#000000" font-family="sans-serif" font-size="14" lengthAdjust="spacing" textLength="171.958" x="606.5" y="280.2363">product_status : VARCHAR</text><text fill="#000000" font-family="sans-serif" font-size="14" lengthAdjust="spacing" textLength="172.7441" x="606.5" y="297.8457">production_cost : DECIMAL</text><text fill="#000000" font-family="sans-serif" font-size="14" lengthAdjust="spacing" textLength="151.7236" x="606.5" y="315.4551">selling_price : DECIMAL</text><text fill="#000000" font-family="sans-serif" font-size="14" lengthAdjust="spacing" textLength="115.9307" x="606.5" y="333.0645">brand : VARCHAR</text><text fill="#000000" font-family="sans-serif" font-size="14" lengthAdjust="spacing" textLength="175.834" x="606.5" y="350.6738">local_or_import : VARCHAR</text><text fill="#000000" font-family="sans-serif" font-size="14" lengthAdjust="spacing" textLength="166.5098" x="606.5" y="368.2832">halal_certified : VARCHAR</text><text fill="#000000" font-family="sans-serif" font-size="14" lengthAdjust="spacing" textLength="172.751" x="606.5" y="385.8926">vegan_product : VARCHAR</text><text fill="#000000" font-family="sans-serif" font-size="14" lengthAdjust="spacing" textLength="185.1855" x="606.5" y="403.502">bpom_registered : VARCHAR</text><text fill="#000000" font-family="sans-serif" font-size="14" lengthAdjust="spacing" textLength="171.958" x="606.5" y="421.1113">supplier_name : VARCHAR</text><text fill="#000000" font-family="sans-serif" font-size="14" lengthAdjust="spacing" textLength="204.6543" x="606.5" y="438.7207">warehouse_location : VARCHAR</text><text fill="#000000" font-family="sans-serif" font-size="14" lengthAdjust="spacing" textLength="93.3584" x="606.5" y="456.3301">stock_qty : INT</text><text fill="#000000" font-family="sans-serif" font-size="14" lengthAdjust="spacing" textLength="117.4961" x="606.5" y="473.9395">reorder_point : INT</text><text fill="#000000" font-family="sans-serif" font-size="14" lengthAdjust="spacing" textLength="167.3027" x="606.5" y="491.5488">rating_average : DECIMAL</text><text fill="#000000" font-family="sans-serif" font-size="14" lengthAdjust="spacing" textLength="116.71" x="606.5" y="509.1582">review_count : INT</text></g><!--class fact_sales--><g class="entity" data-qualified-name="fact_sales" data-source-line="40" id="ent0002"><rect fill="#E3F2FD" height="576.2813" rx="2.5" ry="2.5" style="stroke:#1565C0;stroke-width:0.5;" width="231.4268" x="859.5" y="594.2188"/><ellipse cx="898.4058" cy="610.2188" fill="#ADD1B2" rx="11" ry="11" style="stroke:#181818;stroke-width:1;"/><path d="M897.2652,611.0156 L897.2652,613.5156 L901.5933,613.5156 L901.5933,612.5938 Q901.5933,611.9844 901.8277,611.7188 Q902.0777,611.4531 902.4527,611.4531 Q902.8277,611.4531 903.0621,611.7188 Q903.2964,611.9844 903.2964,612.5938 L903.2964,615.2188 L895.2964,615.2188 Q894.6714,615.2188 894.4058,614.9844 Q894.1558,614.75 894.1558,614.3594 Q894.1558,613.9844 894.4214,613.75 Q894.6871,613.5156 895.2964,613.5156 L895.5621,613.5156 L895.5621,606.8594 L895.2964,606.8594 Q894.6714,606.8594 894.4058,606.625 Q894.1558,606.3906 894.1558,606 Q894.1558,605.625 894.4058,605.3906 Q894.6714,605.1563 895.2964,605.1563 L902.9214,605.1563 L902.9214,607.75 Q902.9214,608.3594 902.6871,608.625 Q902.4683,608.875 902.0777,608.875 Q901.7027,608.875 901.4683,608.625 Q901.2339,608.3594 901.2339,607.75 L901.2339,606.8594 L897.2652,606.8594 L897.2652,609.3125 L898.7496,609.3125 Q898.7496,608.6563 898.8746,608.4688 Q899.1402,608.0625 899.6089,608.0625 Q899.9839,608.0625 900.2183,608.3281 Q900.4527,608.5781 900.4527,609.1875 L900.4527,611.1563 Q900.4527,611.7031 900.3277,611.8906 Q900.0621,612.2813 899.6089,612.2813 Q899.1402,612.2813 898.8746,611.875 Q898.7496,611.6875 898.7496,611.0156 L897.2652,611.0156 Z " fill="#000000"/><text fill="#000000" font-family="sans-serif" font-size="14" lengthAdjust="spacing" textLength="146.3027" x="917.7182" y="615.9473">fact_sales_transactions</text><line style="stroke:#1565C0;stroke-width:0.5;" x1="860.5" x2="1089.9268" y1="626.2188" y2="626.2188"/><g data-visibility-modifier="IE_MANDATORY"><ellipse cx="870.5" cy="640.5234" fill="#000000" rx="3" ry="3" style="stroke:#000000;stroke-width:1;"/></g><text fill="#000000" font-family="sans-serif" font-size="14" lengthAdjust="spacing" textLength="205.4268" x="879.5" y="644.752">transaction_id : VARCHAR &#171;PK&#187;</text><line style="stroke:#1565C0;stroke-width:1;" x1="860.5" x2="1089.9268" y1="651.8281" y2="651.8281"/><text fill="#000000" font-family="sans-serif" font-size="14" lengthAdjust="spacing" textLength="152.5234" x="879.5" y="670.3613">transaction_date : DATE</text><text fill="#000000" font-family="sans-serif" font-size="14" lengthAdjust="spacing" textLength="112.0273" x="879.5" y="687.9707">order_time : TIME</text><text fill="#000000" font-family="sans-serif" font-size="14" lengthAdjust="spacing" textLength="130.6963" x="879.5" y="705.5801">platform : VARCHAR</text><text fill="#000000" font-family="sans-serif" font-size="14" lengthAdjust="spacing" textLength="162.6133" x="879.5" y="723.1895">order_source : VARCHAR</text><text fill="#000000" font-family="sans-serif" font-size="14" lengthAdjust="spacing" textLength="156.3789" x="879.5" y="740.7988">customer_id : VARCHAR</text><text fill="#000000" font-family="sans-serif" font-size="14" lengthAdjust="spacing" textLength="180.5029" x="879.5" y="758.4082">customer_name : VARCHAR</text><text fill="#000000" font-family="sans-serif" font-size="14" lengthAdjust="spacing" textLength="189.0752" x="879.5" y="776.0176">customer_gender : VARCHAR</text><text fill="#000000" font-family="sans-serif" font-size="14" lengthAdjust="spacing" textLength="122.9375" x="879.5" y="793.627">customer_age : INT</text><text fill="#000000" font-family="sans-serif" font-size="14" lengthAdjust="spacing" textLength="101.124" x="879.5" y="811.2363">city : VARCHAR</text><text fill="#000000" font-family="sans-serif" font-size="14" lengthAdjust="spacing" textLength="133.041" x="879.5" y="828.8457">province : VARCHAR</text><text fill="#000000" font-family="sans-serif" font-size="14" lengthAdjust="spacing" textLength="184.3857" x="879.5" y="846.4551">membership_tier : VARCHAR</text><g data-visibility-modifier="IE_MANDATORY"><ellipse cx="870.5" cy="859.8359" fill="#000000" rx="3" ry="3" style="stroke:#000000;stroke-width:1;"/></g><text fill="#000000" font-family="sans-serif" font-size="14" lengthAdjust="spacing" textLength="202.3164" x="879.5" y="864.0645">product_code : VARCHAR &#171;FK&#187;</text><text fill="#000000" font-family="sans-serif" font-size="14" lengthAdjust="spacing" textLength="83.2549" x="879.5" y="881.6738">quantity : INT</text><text fill="#000000" font-family="sans-serif" font-size="14" lengthAdjust="spacing" textLength="148.6064" x="879.5" y="899.2832">gross_sales : DECIMAL</text><text fill="#000000" font-family="sans-serif" font-size="14" lengthAdjust="spacing" textLength="180.5303" x="879.5" y="916.8926">discount_amount : DECIMAL</text><text fill="#000000" font-family="sans-serif" font-size="14" lengthAdjust="spacing" textLength="133.834" x="879.5" y="934.502">net_sales : DECIMAL</text><text fill="#000000" font-family="sans-serif" font-size="14" lengthAdjust="spacing" textLength="159.5166" x="879.5" y="952.1113">shipping_cost : DECIMAL</text><text fill="#000000" font-family="sans-serif" font-size="14" lengthAdjust="spacing" textLength="151.7236" x="879.5" y="969.7207">platform_fee : DECIMAL</text><text fill="#000000" font-family="sans-serif" font-size="14" lengthAdjust="spacing" textLength="188.3027" x="879.5" y="987.3301">payment_method : VARCHAR</text><text fill="#000000" font-family="sans-serif" font-size="14" lengthAdjust="spacing" textLength="168.0752" x="879.5" y="1004.9395">voucher_used : VARCHAR</text><text fill="#000000" font-family="sans-serif" font-size="14" lengthAdjust="spacing" textLength="183.6338" x="879.5" y="1022.5488">campaign_name : VARCHAR</text><text fill="#000000" font-family="sans-serif" font-size="14" lengthAdjust="spacing" textLength="190.6406" x="879.5" y="1040.1582">warehouse_origin : VARCHAR</text><text fill="#000000" font-family="sans-serif" font-size="14" lengthAdjust="spacing" textLength="173.5029" x="879.5" y="1057.7676">delivery_status : VARCHAR</text><text fill="#000000" font-family="sans-serif" font-size="14" lengthAdjust="spacing" textLength="119.8203" x="879.5" y="1075.377">delivery_days : INT</text><text fill="#000000" font-family="sans-serif" font-size="14" lengthAdjust="spacing" textLength="134.5996" x="879.5" y="1092.9863">customer_rating : INT</text><text fill="#000000" font-family="sans-serif" font-size="14" lengthAdjust="spacing" textLength="162.627" x="879.5" y="1110.5957">returned_flag : VARCHAR</text><text fill="#000000" font-family="sans-serif" font-size="14" lengthAdjust="spacing" textLength="167.2891" x="879.5" y="1128.2051">return_reason : VARCHAR</text><text fill="#000000" font-family="sans-serif" font-size="14" lengthAdjust="spacing" textLength="203.8818" x="879.5" y="1145.8145">sales_channel_type : VARCHAR</text><text fill="#000000" font-family="sans-serif" font-size="14" lengthAdjust="spacing" textLength="179.7373" x="879.5" y="1163.4238">cashier_or_host : VARCHAR</text></g><!--class dim_customers--><g class="entity" data-qualified-name="dim_customers" data-source-line="74" id="ent0003"><rect fill="#E3F2FD" height="171.2656" rx="2.5" ry="2.5" style="stroke:#1565C0;stroke-width:0.5;" width="220.5166" x="864.5" y="204.2188"/><ellipse cx="923.0498" cy="220.2188" fill="#ADD1B2" rx="11" ry="11" style="stroke:#181818;stroke-width:1;"/><path d="M921.9092,221.0156 L921.9092,223.5156 L926.2373,223.5156 L926.2373,222.5938 Q926.2373,221.9844 926.4717,221.7188 Q926.7217,221.4531 927.0967,221.4531 Q927.4717,221.4531 927.7061,221.7188 Q927.9404,221.9844 927.9404,222.5938 L927.9404,225.2188 L919.9404,225.2188 Q919.3154,225.2188 919.0498,224.9844 Q918.7998,224.75 918.7998,224.3594 Q918.7998,223.9844 919.0654,223.75 Q919.3311,223.5156 919.9404,223.5156 L920.2061,223.5156 L920.2061,216.8594 L919.9404,216.8594 Q919.3154,216.8594 919.0498,216.625 Q918.7998,216.3906 918.7998,216 Q918.7998,215.625 919.0498,215.3906 Q919.3154,215.1563 919.9404,215.1563 L927.5654,215.1563 L927.5654,217.75 Q927.5654,218.3594 927.3311,218.625 Q927.1123,218.875 926.7217,218.875 Q926.3467,218.875 926.1123,218.625 Q925.8779,218.3594 925.8779,217.75 L925.8779,216.8594 L921.9092,216.8594 L921.9092,219.3125 L923.3936,219.3125 Q923.3936,218.6563 923.5186,218.4688 Q923.7842,218.0625 924.2529,218.0625 Q924.6279,218.0625 924.8623,218.3281 Q925.0967,218.5781 925.0967,219.1875 L925.0967,221.1563 Q925.0967,221.7031 924.9717,221.8906 Q924.7061,222.2813 924.2529,222.2813 Q923.7842,222.2813 923.5186,221.875 Q923.3936,221.6875 923.3936,221.0156 L921.9092,221.0156 Z " fill="#000000"/><text fill="#000000" font-family="sans-serif" font-size="14" lengthAdjust="spacing" textLength="94.917" x="943.5498" y="225.9473">dim_customers</text><line style="stroke:#1565C0;stroke-width:0.5;" x1="865.5" x2="1084.0166" y1="236.2188" y2="236.2188"/><g data-visibility-modifier="IE_MANDATORY"><ellipse cx="875.5" cy="250.5234" fill="#000000" rx="3" ry="3" style="stroke:#000000;stroke-width:1;"/></g><text fill="#000000" font-family="sans-serif" font-size="14" lengthAdjust="spacing" textLength="194.5166" x="884.5" y="254.752">customer_id : VARCHAR &#171;PK&#187;</text><line style="stroke:#1565C0;stroke-width:1;" x1="865.5" x2="1084.0166" y1="261.8281" y2="261.8281"/><text fill="#000000" font-family="sans-serif" font-size="14" lengthAdjust="spacing" textLength="180.5029" x="870.5" y="280.3613">customer_name : VARCHAR</text><text fill="#000000" font-family="sans-serif" font-size="14" lengthAdjust="spacing" textLength="189.0752" x="870.5" y="297.9707">customer_gender : VARCHAR</text><text fill="#000000" font-family="sans-serif" font-size="14" lengthAdjust="spacing" textLength="122.9375" x="870.5" y="315.5801">customer_age : INT</text><text fill="#000000" font-family="sans-serif" font-size="14" lengthAdjust="spacing" textLength="101.124" x="870.5" y="333.1895">city : VARCHAR</text><text fill="#000000" font-family="sans-serif" font-size="14" lengthAdjust="spacing" textLength="133.041" x="870.5" y="350.7988">province : VARCHAR</text><text fill="#000000" font-family="sans-serif" font-size="14" lengthAdjust="spacing" textLength="184.3857" x="870.5" y="368.4082">membership_tier : VARCHAR</text></g><!--class dim_date--><g class="entity" data-qualified-name="dim_date" data-source-line="85" id="ent0004"><rect fill="#E3F2FD" height="171.2656" rx="2.5" ry="2.5" style="stroke:#1565C0;stroke-width:0.5;" width="174.627" x="1120.5" y="204.2188"/><ellipse cx="1174.7671" cy="220.2188" fill="#ADD1B2" rx="11" ry="11" style="stroke:#181818;stroke-width:1;"/><path d="M1173.6265,221.0156 L1173.6265,223.5156 L1177.9546,223.5156 L1177.9546,222.5938 Q1177.9546,221.9844 1178.189,221.7188 Q1178.439,221.4531 1178.814,221.4531 Q1179.189,221.4531 1179.4233,221.7188 Q1179.6577,221.9844 1179.6577,222.5938 L1179.6577,225.2188 L1171.6577,225.2188 Q1171.0327,225.2188 1170.7671,224.9844 Q1170.5171,224.75 1170.5171,224.3594 Q1170.5171,223.9844 1170.7827,223.75 Q1171.0483,223.5156 1171.6577,223.5156 L1171.9233,223.5156 L1171.9233,216.8594 L1171.6577,216.8594 Q1171.0327,216.8594 1170.7671,216.625 Q1170.5171,216.3906 1170.5171,216 Q1170.5171,215.625 1170.7671,215.3906 Q1171.0327,215.1563 1171.6577,215.1563 L1179.2827,215.1563 L1179.2827,217.75 Q1179.2827,218.3594 1179.0483,218.625 Q1178.8296,218.875 1178.439,218.875 Q1178.064,218.875 1177.8296,218.625 Q1177.5952,218.3594 1177.5952,217.75 L1177.5952,216.8594 L1173.6265,216.8594 L1173.6265,219.3125 L1175.1108,219.3125 Q1175.1108,218.6563 1175.2358,218.4688 Q1175.5015,218.0625 1175.9702,218.0625 Q1176.3452,218.0625 1176.5796,218.3281 Q1176.814,218.5781 1176.814,219.1875 L1176.814,221.1563 Q1176.814,221.7031 1176.689,221.8906 Q1176.4233,222.2813 1175.9702,222.2813 Q1175.5015,222.2813 1175.2358,221.875 Q1175.1108,221.6875 1175.1108,221.0156 L1173.6265,221.0156 Z " fill="#000000"/><text fill="#000000" font-family="sans-serif" font-size="14" lengthAdjust="spacing" textLength="57.5928" x="1195.2671" y="225.9473">dim_date</text><line style="stroke:#1565C0;stroke-width:0.5;" x1="1121.5" x2="1294.127" y1="236.2188" y2="236.2188"/><g data-visibility-modifier="IE_MANDATORY"><ellipse cx="1131.5" cy="250.5234" fill="#000000" rx="3" ry="3" style="stroke:#000000;stroke-width:1;"/></g><text fill="#000000" font-family="sans-serif" font-size="14" lengthAdjust="spacing" textLength="143.9648" x="1140.5" y="254.752">date_key : DATE &#171;PK&#187;</text><line style="stroke:#1565C0;stroke-width:1;" x1="1121.5" x2="1294.127" y1="261.8281" y2="261.8281"/><text fill="#000000" font-family="sans-serif" font-size="14" lengthAdjust="spacing" textLength="56.793" x="1126.5" y="280.3613">day : INT</text><text fill="#000000" font-family="sans-serif" font-size="14" lengthAdjust="spacing" textLength="73.1309" x="1126.5" y="297.9707">month : INT</text><text fill="#000000" font-family="sans-serif" font-size="14" lengthAdjust="spacing" textLength="61.4551" x="1126.5" y="315.5801">year : INT</text><text fill="#000000" font-family="sans-serif" font-size="14" lengthAdjust="spacing" textLength="78.5791" x="1126.5" y="333.1895">quarter : INT</text><text fill="#000000" font-family="sans-serif" font-size="14" lengthAdjust="spacing" textLength="162.627" x="1126.5" y="350.7988">day_of_week : VARCHAR</text><text fill="#000000" font-family="sans-serif" font-size="14" lengthAdjust="spacing" textLength="153.2959" x="1126.5" y="368.4082">is_weekend : BOOLEAN</text></g><!--class assoc_rules--><g class="entity" data-qualified-name="assoc_rules" data-source-line="96" id="ent0005"><rect fill="#E3F2FD" height="171.2656" rx="2.5" ry="2.5" style="stroke:#1565C0;stroke-width:0.5;" width="214.3232" x="7" y="204.2188"/><ellipse cx="55.8257" cy="220.2188" fill="#ADD1B2" rx="11" ry="11" style="stroke:#181818;stroke-width:1;"/><path d="M54.6851,221.0156 L54.6851,223.5156 L59.0132,223.5156 L59.0132,222.5938 Q59.0132,221.9844 59.2476,221.7188 Q59.4976,221.4531 59.8726,221.4531 Q60.2476,221.4531 60.4819,221.7188 Q60.7163,221.9844 60.7163,222.5938 L60.7163,225.2188 L52.7163,225.2188 Q52.0913,225.2188 51.8257,224.9844 Q51.5757,224.75 51.5757,224.3594 Q51.5757,223.9844 51.8413,223.75 Q52.1069,223.5156 52.7163,223.5156 L52.9819,223.5156 L52.9819,216.8594 L52.7163,216.8594 Q52.0913,216.8594 51.8257,216.625 Q51.5757,216.3906 51.5757,216 Q51.5757,215.625 51.8257,215.3906 Q52.0913,215.1563 52.7163,215.1563 L60.3413,215.1563 L60.3413,217.75 Q60.3413,218.3594 60.1069,218.625 Q59.8882,218.875 59.4976,218.875 Q59.1226,218.875 58.8882,218.625 Q58.6538,218.3594 58.6538,217.75 L58.6538,216.8594 L54.6851,216.8594 L54.6851,219.3125 L56.1694,219.3125 Q56.1694,218.6563 56.2944,218.4688 Q56.5601,218.0625 57.0288,218.0625 Q57.4038,218.0625 57.6382,218.3281 Q57.8726,218.5781 57.8726,219.1875 L57.8726,221.1563 Q57.8726,221.7031 57.7476,221.8906 Q57.4819,222.2813 57.0288,222.2813 Q56.5601,222.2813 56.2944,221.875 Q56.1694,221.6875 56.1694,221.0156 L54.6851,221.0156 Z " fill="#000000"/><text fill="#000000" font-family="sans-serif" font-size="14" lengthAdjust="spacing" textLength="108.1719" x="76.3257" y="225.9473">association_rules</text><line style="stroke:#1565C0;stroke-width:0.5;" x1="8" x2="220.3232" y1="236.2188" y2="236.2188"/><g data-visibility-modifier="IE_MANDATORY"><ellipse cx="18" cy="250.5234" fill="#000000" rx="3" ry="3" style="stroke:#000000;stroke-width:1;"/></g><text fill="#000000" font-family="sans-serif" font-size="14" lengthAdjust="spacing" textLength="114.3857" x="27" y="254.752">rule_id : INT &#171;PK&#187;</text><line style="stroke:#1565C0;stroke-width:1;" x1="8" x2="220.3232" y1="261.8281" y2="261.8281"/><text fill="#000000" font-family="sans-serif" font-size="14" lengthAdjust="spacing" textLength="199.2129" x="13" y="280.3613">antecedents_name : VARCHAR</text><text fill="#000000" font-family="sans-serif" font-size="14" lengthAdjust="spacing" textLength="202.3232" x="13" y="297.9707">consequents_name : VARCHAR</text><text fill="#000000" font-family="sans-serif" font-size="14" lengthAdjust="spacing" textLength="120.5996" x="13" y="315.5801">support : DECIMAL</text><text fill="#000000" font-family="sans-serif" font-size="14" lengthAdjust="spacing" textLength="141.6201" x="13" y="333.1895">confidence : DECIMAL</text><text fill="#000000" font-family="sans-serif" font-size="14" lengthAdjust="spacing" textLength="87.9033" x="13" y="350.7988">lift : DECIMAL</text><text fill="#000000" font-family="sans-serif" font-size="14" lengthAdjust="spacing" textLength="175.8545" x="13" y="368.4082">generated_at : TIMESTAMP</text></g><!--class overstock--><g class="entity" data-qualified-name="overstock" data-source-line="107" id="ent0006"><rect fill="#E3F2FD" height="118.4375" rx="2.5" ry="2.5" style="stroke:#1565C0;stroke-width:0.5;" width="213.5166" x="1331" y="230.7188"/><ellipse cx="1382.936" cy="246.7188" fill="#ADD1B2" rx="11" ry="11" style="stroke:#181818;stroke-width:1;"/><path d="M1381.7954,247.5156 L1381.7954,250.0156 L1386.1235,250.0156 L1386.1235,249.0938 Q1386.1235,248.4844 1386.3579,248.2188 Q1386.6079,247.9531 1386.9829,247.9531 Q1387.3579,247.9531 1387.5923,248.2188 Q1387.8267,248.4844 1387.8267,249.0938 L1387.8267,251.7188 L1379.8267,251.7188 Q1379.2017,251.7188 1378.936,251.4844 Q1378.686,251.25 1378.686,250.8594 Q1378.686,250.4844 1378.9517,250.25 Q1379.2173,250.0156 1379.8267,250.0156 L1380.0923,250.0156 L1380.0923,243.3594 L1379.8267,243.3594 Q1379.2017,243.3594 1378.936,243.125 Q1378.686,242.8906 1378.686,242.5 Q1378.686,242.125 1378.936,241.8906 Q1379.2017,241.6563 1379.8267,241.6563 L1387.4517,241.6563 L1387.4517,244.25 Q1387.4517,244.8594 1387.2173,245.125 Q1386.9985,245.375 1386.6079,245.375 Q1386.2329,245.375 1385.9985,245.125 Q1385.7642,244.8594 1385.7642,244.25 L1385.7642,243.3594 L1381.7954,243.3594 L1381.7954,245.8125 L1383.2798,245.8125 Q1383.2798,245.1563 1383.4048,244.9688 Q1383.6704,244.5625 1384.1392,244.5625 Q1384.5142,244.5625 1384.7485,244.8281 Q1384.9829,245.0781 1384.9829,245.6875 L1384.9829,247.6563 Q1384.9829,248.2031 1384.8579,248.3906 Q1384.5923,248.7813 1384.1392,248.7813 Q1383.6704,248.7813 1383.4048,248.375 Q1383.2798,248.1875 1383.2798,247.5156 L1381.7954,247.5156 Z " fill="#000000"/><text fill="#000000" font-family="sans-serif" font-size="14" lengthAdjust="spacing" textLength="101.1445" x="1403.436" y="252.4473">overstock_items</text><line style="stroke:#1565C0;stroke-width:0.5;" x1="1332" x2="1543.5166" y1="262.7188" y2="262.7188"/><g data-visibility-modifier="IE_MANDATORY"><ellipse cx="1342" cy="277.0234" fill="#000000" rx="3" ry="3" style="stroke:#000000;stroke-width:1;"/></g><text fill="#000000" font-family="sans-serif" font-size="14" lengthAdjust="spacing" textLength="187.5166" x="1351" y="281.252">item_name : VARCHAR &#171;PK&#187;</text><line style="stroke:#1565C0;stroke-width:1;" x1="1332" x2="1543.5166" y1="288.3281" y2="288.3281"/><text fill="#000000" font-family="sans-serif" font-size="14" lengthAdjust="spacing" textLength="90.2549" x="1337" y="306.8613">days_left : INT</text><text fill="#000000" font-family="sans-serif" font-size="14" lengthAdjust="spacing" textLength="66.8965" x="1337" y="324.4707">stock : INT</text><text fill="#000000" font-family="sans-serif" font-size="14" lengthAdjust="spacing" textLength="168.8408" x="1337" y="342.0801">identified_at : TIMESTAMP</text></g><g class="entity" data-qualified-name="GMN10" data-source-line="120" id="ent0011"><path d="M256.5,260.2188 L256.5,285.7188 L221.02,289.7188 L256.5,293.7188 L256.5,319.2734 A0,0 0 0 0 256.5,319.2734 L565.106,319.2734 A0,0 0 0 0 565.106,319.2734 L565.106,270.2188 L555.106,260.2188 L256.5,260.2188 A0,0 0 0 0 256.5,260.2188" fill="#FEFFDD" style="stroke:#181818;stroke-width:0.5;"/><path d="M555.106,260.2188 L555.106,270.2188 L565.106,270.2188 L555.106,260.2188" fill="#FEFFDD" style="stroke:#181818;stroke-width:0.5;"/><text fill="#000000" font-family="sans-serif" font-size="13" lengthAdjust="spacing" textLength="287.606" x="262.5" y="278.7139">Output yang dihasilkan oleh mesin Python Apriori.</text><text fill="#000000" font-family="sans-serif" font-size="13" lengthAdjust="spacing" textLength="208.127" x="262.5" y="295.0654">Saat ini tidak disimpan ke database;</text><text fill="#000000" font-family="sans-serif" font-size="13" lengthAdjust="spacing" textLength="231.9561" x="262.5" y="311.417">disimpan sebagai association_rules.csv.</text></g><g class="entity" data-qualified-name="GMN13" data-source-line="126" id="ent0014"><path d="M1273.5,852.7188 L1273.5,911.7734 A0,0 0 0 0 1273.5,911.7734 L1602.3105,911.7734 A0,0 0 0 0 1602.3105,911.7734 L1602.3105,862.7188 L1592.3105,852.7188 L1442,852.7188 L1438,348.9588 L1434,852.7188 L1273.5,852.7188 A0,0 0 0 0 1273.5,852.7188" fill="#FEFFDD" style="stroke:#181818;stroke-width:0.5;"/><path d="M1592.3105,852.7188 L1592.3105,862.7188 L1602.3105,862.7188 L1592.3105,852.7188" fill="#FEFFDD" style="stroke:#181818;stroke-width:0.5;"/><text fill="#000000" font-family="sans-serif" font-size="13" lengthAdjust="spacing" textLength="307.8105" x="1279.5" y="871.2139">Inventori overstock hard-coded di AnalyticsController.</text><text fill="#000000" font-family="sans-serif" font-size="13" lengthAdjust="spacing" textLength="239.897" x="1279.5" y="887.5654">Untuk produksi sebaiknya bersumber dari</text><text fill="#000000" font-family="sans-serif" font-size="13" lengthAdjust="spacing" textLength="246.416" x="1279.5" y="903.917">dim_products.stock_qty dan reorder_point.</text></g><!--link dim_products to fact_sales--><g class="link" data-entity-1="ent0001" data-entity-2="ent0002" data-link-type="crowfoot" data-source-line="115" id="lnk7"><path codeLine="115" d="M817.6332,523.8107 C832.3232,557.1807 837.0957,568.0153 852.0857,602.0553" fill="none" id="dim_products-fact_sales" style="stroke:#1565C0;stroke-width:1;"/><line style="stroke:#1565C0;stroke-width:1;" x1="812.3606" x2="819.6826" y1="521.7613" y2="518.5381"/><line style="stroke:#1565C0;stroke-width:1;" x1="813.5694" x2="820.8913" y1="524.5071" y2="521.2838"/><line style="stroke:#1565C0;stroke-width:1;" x1="817.6332" x2="814.41" y1="523.8107" y2="516.4888"/><line style="stroke:#1565C0;stroke-width:1;" x1="856.1159" x2="864.8312" y1="611.2072" y2="616.1106"/><line style="stroke:#1565C0;stroke-width:1;" x1="856.1159" x2="853.8488" y1="611.2072" y2="620.9469"/><line style="stroke:#1565C0;stroke-width:1;" x1="856.1159" x2="859.34" y1="611.2072" y2="618.5288"/><ellipse cx="853.6977" cy="605.7161" fill="none" rx="4" ry="4" style="stroke:#1565C0;stroke-width:1;"/><text fill="#000000" font-family="sans-serif" font-size="13" lengthAdjust="spacing" textLength="71.5444" x="831" y="560.7139">1 ke Banyak</text></g><!--link dim_customers to fact_sales--><g class="link" data-entity-1="ent0003" data-entity-2="ent0002" data-link-type="crowfoot" data-source-line="116" id="lnk8"><path codeLine="116" d="M975,383.3188 C975,441.3588 975,496.0688 975,575.9788" fill="none" id="dim_customers-fact_sales" style="stroke:#1565C0;stroke-width:1;"/><line style="stroke:#1565C0;stroke-width:1;" x1="971" x2="979" y1="379.3188" y2="379.3188"/><line style="stroke:#1565C0;stroke-width:1;" x1="971" x2="979" y1="382.3188" y2="382.3188"/><line style="stroke:#1565C0;stroke-width:1;" x1="975" x2="975" y1="383.3188" y2="375.3188"/><line style="stroke:#1565C0;stroke-width:1;" x1="975" x2="981" y1="585.9788" y2="593.9788"/><line style="stroke:#1565C0;stroke-width:1;" x1="975" x2="969" y1="585.9788" y2="593.9788"/><line style="stroke:#1565C0;stroke-width:1;" x1="975" x2="975" y1="585.9788" y2="593.9788"/><ellipse cx="975" cy="579.9788" fill="none" rx="4" ry="4" style="stroke:#1565C0;stroke-width:1;"/><text fill="#000000" font-family="sans-serif" font-size="13" lengthAdjust="spacing" textLength="71.5444" x="976" y="560.7139">1 ke Banyak</text></g><!--link dim_date to fact_sales--><g class="link" data-entity-1="ent0004" data-entity-2="ent0002" data-link-type="crowfoot" data-source-line="117" id="lnk9"><path codeLine="117" d="M1171.6838,382.7605 C1148.7838,440.8005 1126.4766,497.325 1094.9466,577.235" fill="none" id="dim_date-fact_sales" style="stroke:#1565C0;stroke-width:1;"/><line style="stroke:#1565C0;stroke-width:1;" x1="1169.4311" x2="1176.8728" y1="377.5715" y2="380.5077"/><line style="stroke:#1565C0;stroke-width:1;" x1="1168.33" x2="1175.7717" y1="380.3622" y2="383.2983"/><line style="stroke:#1565C0;stroke-width:1;" x1="1171.6838" x2="1174.62" y1="382.7605" y2="375.3188"/><line style="stroke:#1565C0;stroke-width:1;" x1="1091.2763" x2="1093.9213" y1="586.5371" y2="596.1809"/><line style="stroke:#1565C0;stroke-width:1;" x1="1091.2763" x2="1082.7587" y1="586.5371" y2="591.7766"/><line style="stroke:#1565C0;stroke-width:1;" x1="1091.2763" x2="1088.34" y1="586.5371" y2="593.9788"/><ellipse cx="1093.4784" cy="580.9558" fill="none" rx="4" ry="4" style="stroke:#1565C0;stroke-width:1;"/><text fill="#000000" font-family="sans-serif" font-size="13" lengthAdjust="spacing" textLength="71.5444" x="1107" y="560.7139">1 ke Banyak</text></g><?plantuml-src pLRTRzis47_tNy5bRmCSh1kwXwueu3WEPhHfWYJhKm7YB9qaGXIfyCE1rkP_xv6oR9bMiZqkVWXqTpp-xdxtmPzoB8H2vc0ZaMKIh9tDR2rK2mOQje6iBetsAbzggGtx-MeLVYEBU8Hzcp7wkqYjLxzV_NPrsUkqoT7iv6_U_l5s-MkKBupHJyVYvzdC2KTm5jx01O9t7RjOipcx5526E--GBXLifSWCx5VrKIkBBRjtODXzLc43ina6PSVESj7mrkZSPywUCR1iBDZX_eNj13pJER9txClYRldNuewzVt_xySE7Q3EVnt-3eO9cP1XL6JWijUaIiVKR_fAgWZprGcm8Mt7NjQacv3pAESLPealLuX_aZIJf-lD3b4ZmAgjuXvIMWtI8m3fmtYPETagX5QN2XYikLylrzU9JVmLAALH9wHCP9hgD0PKdtgJEG79jk6XQRLB05KZIPcYSA0IcPxTOWXg8IdIRLZVSO2ciGtDoqlgsbGBD54TFOB3ItY8Fs4ASwM6dive_kcwKCOEnTdchXN9ZEJcWRC0M3PHfFWnk1JvH5lt-pFEXAWi83814onqbpaBCUL-W1zs-F4SsNEIl5kZODAUo2x0M3wkewyDm8gRbONtTIri9hj2cIJBH6rljJNPIwPxIr91Mv2zfflfZq9MeoFLBsZwLGuupuRhJ6jqATGAgmMQ3nbQYfGXFtB_IubT31XyzzFGShgTfPksEZ6D-Ss4ZjnoQ7SLZhK8tUIh0QqFHJ7JNm0ClC2sc5hg6IeStw2fzqYdQqympdAhwX0veMX2bUhqLj16bI1iXHoceiBlfER7Nvj3PCLq3Ytrl73MHyqPXpWi9PUAjrr57WprjoDWaMGLAePmQYnbGKkb66ZDLdzH1-toy1GPiXpMmb-mRRRAo9xhiVrddIRoX-_UXnb4mH1a-U8tTRZPCn4UqZi0rMhbgz9ri5EeRut0ieUDS5_m9iKxG2nkb67V5nStDfzNYynWuFIPq9k9aviOJzJ62AEs_zq64hvuckdKY1Efbp30dntQIfV1cUFGlgSCIwLVMk0_fK278vSdsaw98RObzsWkEAXxSRjpUFookRyVHQkgXVkC8XqqVwrwsZpJe4epJb5akiHXlgDxFuJjWxxVj1AYZXz7tx_Ev_ZRUHU_OsHjM8ptoL0VrsUouWVwRVQp2VpUTAKrsD9KgntGnPZz6SUDTwnthW0PCBYfw2ieQ5DCIA-eEIwFijgCvgTY27YeqtCxZgNkWaEbnnPp8eGxpcrubT8pk9LYm0Oj_3fEzrrZSG0c2dTJaUMQtvxDGmm7e3kv6Eyf5mBjdCBfRgoqbdM2CcAt0vFEmY7AwZIqKoCw9p2wfpuoM4aqF-M_bVDqlhfhUkm6Fg2b5B0m07yO0GJTYX_h0tldX5PDJ74Vlbn7k7m00?></g></svg>