<svg xmlns="http://www.w3.org/2000/svg" xmlns:xlink="http://www.w3.org/1999/xlink" contentStyleType="text/css" data-diagram-type="DESCRIPTION" height="737px" preserveAspectRatio="none" style="width:1455px;height:737px;background:#FEFEFE;" version="1.1" viewBox="0 0 1455 737" width="1455px" zoomAndPan="magnify"><?plantuml 1.2026.6?><defs/><g><rect fill="#FEFEFE" height="737" style="stroke:none;stroke-width:1;" width="1455" x="0" y="0"/><g class="title" data-source-line="16"><text fill="#000000" font-family="sans-serif" font-size="14" font-weight="700" lengthAdjust="spacing" textLength="248.9443" x="599.5278" y="24.5332">AuraBeauty BI - Diagram Deployment</text></g><!--cluster Workstation--><g class="cluster" data-qualified-name="Workstation" data-source-line="18" id="ent0001"><polygon fill="#E3F2FD" points="788,54.6094,798,44.6094,1025,44.6094,1025,155.6094,1015,165.6094,788,165.6094,788,54.6094" style="stroke:#1565C0;stroke-width:1;stroke-linejoin:miter;stroke-miterlimit:10;"/><line style="stroke:#1565C0;stroke-width:1;" x1="1015" x2="1025" y1="54.6094" y2="44.6094"/><line style="stroke:#1565C0;stroke-width:1;" x1="788" x2="1015" y1="54.6094" y2="54.6094"/><line style="stroke:#1565C0;stroke-width:1;" x1="1015" x2="1015" y1="54.6094" y2="165.6094"/><text fill="#000000" font-family="sans-serif" font-size="14" font-weight="700" lengthAdjust="spacing" textLength="161.0342" x="821.9829" y="72.1426">Stasiun Kerja Pengguna</text></g><!--cluster WebServer--><g class="cluster" data-qualified-name="WebServer" data-source-line="22" id="ent0003"><polygon fill="#E3F2FD" points="16,241.6094,26,231.6094,1430,231.6094,1430,702.6094,1420,712.6094,16,712.6094,16,241.6094" style="stroke:#1565C0;stroke-width:1;stroke-linejoin:miter;stroke-miterlimit:10;"/><line style="stroke:#1565C0;stroke-width:1;" x1="1420" x2="1430" y1="241.6094" y2="231.6094"/><line style="stroke:#1565C0;stroke-width:1;" x1="16" x2="1420" y1="241.6094" y2="241.6094"/><line style="stroke:#1565C0;stroke-width:1;" x1="1420" x2="1420" y1="241.6094" y2="712.6094"/><text fill="#000000" font-family="sans-serif" font-size="14" font-weight="700" lengthAdjust="spacing" textLength="77.0342" x="680.4829" y="259.1426">Server Web</text></g><!--cluster Aplikasi Laravel 11.x--><g class="cluster" data-qualified-name="WebServer.Aplikasi Laravel 11.x" data-source-line="23" id="ent0004"><path d="M670.5,288.6094 L809.251,288.6094 A3.75,3.75 0 0 1 811.751,291.1094 L818.751,312.2188 L1015.5,312.2188 A2.5,2.5 0 0 1 1018,314.7188 L1018,565.1094 A2.5,2.5 0 0 1 1015.5,567.6094 L670.5,567.6094 A2.5,2.5 0 0 1 668,565.1094 L668,291.1094 A2.5,2.5 0 0 1 670.5,288.6094" fill="none" style="stroke:#000000;stroke-width:1.5;"/><line style="stroke:#000000;stroke-width:1.5;" x1="668" x2="818.751" y1="312.2188" y2="312.2188"/><text fill="#000000" font-family="sans-serif" font-size="14" font-weight="700" lengthAdjust="spacing" textLength="137.751" x="672" y="305.1426">Aplikasi Laravel 11.x</text></g><!--cluster Runtime Python--><g class="cluster" data-qualified-name="WebServer.Runtime Python" data-source-line="29" id="ent0008"><path d="M134.5,467.6094 L242.8311,467.6094 A3.75,3.75 0 0 1 245.3311,470.1094 L252.3311,491.2188 L641.5,491.2188 A2.5,2.5 0 0 1 644,493.7188 L644,565.1094 A2.5,2.5 0 0 1 641.5,567.6094 L134.5,567.6094 A2.5,2.5 0 0 1 132,565.1094 L132,470.1094 A2.5,2.5 0 0 1 134.5,467.6094" fill="none" style="stroke:#000000;stroke-width:1.5;"/><line style="stroke:#000000;stroke-width:1.5;" x1="132" x2="252.3311" y1="491.2188" y2="491.2188"/><text fill="#000000" font-family="sans-serif" font-size="14" font-weight="700" lengthAdjust="spacing" textLength="107.3311" x="136" y="484.1426">Runtime Python</text></g><!--cluster SQLite--><g class="cluster" data-qualified-name="WebServer.SQLite" data-source-line="35" id="ent0012"><path d="M1050,454.6094 C1050,444.6094 1220,444.6094 1220,444.6094 C1220,444.6094 1390,444.6094 1390,454.6094 L1390,565.6094 C1390,575.6094 1220,575.6094 1220,575.6094 C1220,575.6094 1050,575.6094 1050,565.6094 L1050,454.6094" fill="none" style="stroke:#181818;stroke-width:1;"/><path d="M1050,454.6094 C1050,464.6094 1220,464.6094 1220,464.6094 C1220,464.6094 1390,464.6094 1390,454.6094" fill="none" style="stroke:#181818;stroke-width:1;"/><text fill="#000000" font-family="sans-serif" font-size="14" font-weight="700" lengthAdjust="spacing" textLength="45.1172" x="1197.4414" y="481.1426">SQLite</text></g><!--entity Browser--><g class="entity" data-qualified-name="Workstation.Browser" data-source-line="19" id="ent0002"><rect fill="#FFF3E0" height="47.6094" rx="2.5" ry="2.5" style="stroke:#E65100;stroke-width:0.5;" width="124.0205" x="877" y="93.6094"/><rect fill="#FFF3E0" height="10" style="stroke:#E65100;stroke-width:0.5;" width="15" x="981.0205" y="98.6094"/><rect fill="#FFF3E0" height="2" style="stroke:#E65100;stroke-width:0.5;" width="4" x="979.0205" y="100.6094"/><rect fill="#FFF3E0" height="2" style="stroke:#E65100;stroke-width:0.5;" width="4" x="979.0205" y="104.6094"/><text fill="#000000" font-family="sans-serif" font-size="14" lengthAdjust="spacing" textLength="84.0205" x="892" y="128.1426">Browser Web</text></g><!--entity ProductsCSV--><g class="entity" data-qualified-name="WebServer.ProductsCSV" data-source-line="40" id="ent0015"><rect fill="#E8F5E9" height="40.6094" rx="2.5" ry="2.5" style="stroke:#2E7D32;stroke-width:0.5;" width="187.9922" x="627" y="647.6094"/><polygon fill="#E8F5E9" points="797.9922,652.6094,797.9922,666.6094,809.9922,666.6094,809.9922,658.6094,803.9922,652.6094,797.9922,652.6094" style="stroke:#2E7D32;stroke-width:0.5;stroke-linejoin:miter;stroke-miterlimit:10;"/><line style="stroke:#2E7D32;stroke-width:0.5;" x1="803.9922" x2="803.9922" y1="652.6094" y2="658.6094"/><line style="stroke:#2E7D32;stroke-width:0.5;" x1="809.9922" x2="803.9922" y1="658.6094" y2="658.6094"/><text fill="#000000" font-family="sans-serif" font-size="14" lengthAdjust="spacing" textLength="157.9922" x="637" y="675.1426">product_code Sheet1.csv</text></g><!--entity TransactionsCSV--><g class="entity" data-qualified-name="WebServer.TransactionsCSV" data-source-line="41" id="ent0016"><rect fill="#E8F5E9" height="40.6094" rx="2.5" ry="2.5" style="stroke:#2E7D32;stroke-width:0.5;" width="178.6338" x="412.5" y="647.6094"/><polygon fill="#E8F5E9" points="574.1338,652.6094,574.1338,666.6094,586.1338,666.6094,586.1338,658.6094,580.1338,652.6094,574.1338,652.6094" style="stroke:#2E7D32;stroke-width:0.5;stroke-linejoin:miter;stroke-miterlimit:10;"/><line style="stroke:#2E7D32;stroke-width:0.5;" x1="580.1338" x2="580.1338" y1="652.6094" y2="658.6094"/><line style="stroke:#2E7D32;stroke-width:0.5;" x1="586.1338" x2="580.1338" y1="658.6094" y2="658.6094"/><text fill="#000000" font-family="sans-serif" font-size="14" lengthAdjust="spacing" textLength="148.6338" x="422.5" y="675.1426">transactions Sheet1.csv</text></g><!--entity RulesCSV--><g class="entity" data-qualified-name="WebServer.RulesCSV" data-source-line="42" id="ent0017"><rect fill="#E8F5E9" height="40.6094" rx="2.5" ry="2.5" style="stroke:#2E7D32;stroke-width:0.5;" width="163.0615" x="167.5" y="647.6094"/><polygon fill="#E8F5E9" points="313.5615,652.6094,313.5615,666.6094,325.5615,666.6094,325.5615,658.6094,319.5615,652.6094,313.5615,652.6094" style="stroke:#2E7D32;stroke-width:0.5;stroke-linejoin:miter;stroke-miterlimit:10;"/><line style="stroke:#2E7D32;stroke-width:0.5;" x1="319.5615" x2="319.5615" y1="652.6094" y2="658.6094"/><line style="stroke:#2E7D32;stroke-width:0.5;" x1="325.5615" x2="319.5615" y1="658.6094" y2="658.6094"/><text fill="#000000" font-family="sans-serif" font-size="14" lengthAdjust="spacing" textLength="133.0615" x="177.5" y="675.1426">association_rules.csv</text></g><!--entity PHP--><g class="entity" data-qualified-name="WebServer.Aplikasi Laravel 11.x.PHP" data-source-line="24" id="ent0005"><rect fill="#FFF3E0" height="47.6094" rx="2.5" ry="2.5" style="stroke:#E65100;stroke-width:0.5;" width="124.793" x="876.5" y="324.6094"/><rect fill="#FFF3E0" height="10" style="stroke:#E65100;stroke-width:0.5;" width="15" x="981.293" y="329.6094"/><rect fill="#FFF3E0" height="2" style="stroke:#E65100;stroke-width:0.5;" width="4" x="979.293" y="331.6094"/><rect fill="#FFF3E0" height="2" style="stroke:#E65100;stroke-width:0.5;" width="4" x="979.293" y="335.6094"/><text fill="#000000" font-family="sans-serif" font-size="14" lengthAdjust="spacing" textLength="84.793" x="891.5" y="359.1426">PHP 8.x FPM</text></g><!--entity Controller--><g class="entity" data-qualified-name="WebServer.Aplikasi Laravel 11.x.Controller" data-source-line="25" id="ent0006"><rect fill="#FFF3E0" height="47.6094" rx="2.5" ry="2.5" style="stroke:#E65100;stroke-width:0.5;" width="156.71" x="684.5" y="324.6094"/><rect fill="#FFF3E0" height="10" style="stroke:#E65100;stroke-width:0.5;" width="15" x="821.21" y="329.6094"/><rect fill="#FFF3E0" height="2" style="stroke:#E65100;stroke-width:0.5;" width="4" x="819.21" y="331.6094"/><rect fill="#FFF3E0" height="2" style="stroke:#E65100;stroke-width:0.5;" width="4" x="819.21" y="335.6094"/><text fill="#000000" font-family="sans-serif" font-size="14" lengthAdjust="spacing" textLength="116.71" x="699.5" y="359.1426">AnalyticsController</text></g><!--entity Views--><g class="entity" data-qualified-name="WebServer.Aplikasi Laravel 11.x.Views" data-source-line="26" id="ent0007"><rect fill="#FFF3E0" height="47.6094" rx="2.5" ry="2.5" style="stroke:#E65100;stroke-width:0.5;" width="137.2754" x="864.5" y="503.6094"/><rect fill="#FFF3E0" height="10" style="stroke:#E65100;stroke-width:0.5;" width="15" x="981.7754" y="508.6094"/><rect fill="#FFF3E0" height="2" style="stroke:#E65100;stroke-width:0.5;" width="4" x="979.7754" y="510.6094"/><rect fill="#FFF3E0" height="2" style="stroke:#E65100;stroke-width:0.5;" width="4" x="979.7754" y="514.6094"/><text fill="#000000" font-family="sans-serif" font-size="14" lengthAdjust="spacing" textLength="97.2754" x="879.5" y="538.1426">Tampilan Blade</text></g><!--entity Python--><g class="entity" data-qualified-name="WebServer.Runtime Python.Python" data-source-line="30" id="ent0009"><rect fill="#FFF3E0" height="47.6094" rx="2.5" ry="2.5" style="stroke:#E65100;stroke-width:0.5;" width="106.1514" x="522" y="503.6094"/><rect fill="#FFF3E0" height="10" style="stroke:#E65100;stroke-width:0.5;" width="15" x="608.1514" y="508.6094"/><rect fill="#FFF3E0" height="2" style="stroke:#E65100;stroke-width:0.5;" width="4" x="606.1514" y="510.6094"/><rect fill="#FFF3E0" height="2" style="stroke:#E65100;stroke-width:0.5;" width="4" x="606.1514" y="514.6094"/><text fill="#000000" font-family="sans-serif" font-size="14" lengthAdjust="spacing" textLength="66.1514" x="537" y="538.1426">Python 3.x</text></g><!--entity Script--><g class="entity" data-qualified-name="WebServer.Runtime Python.Script" data-source-line="31" id="ent0010"><rect fill="#FFF3E0" height="47.6094" rx="2.5" ry="2.5" style="stroke:#E65100;stroke-width:0.5;" width="155.9443" x="331" y="503.6094"/><rect fill="#FFF3E0" height="10" style="stroke:#E65100;stroke-width:0.5;" width="15" x="466.9443" y="508.6094"/><rect fill="#FFF3E0" height="2" style="stroke:#E65100;stroke-width:0.5;" width="4" x="464.9443" y="510.6094"/><rect fill="#FFF3E0" height="2" style="stroke:#E65100;stroke-width:0.5;" width="4" x="464.9443" y="514.6094"/><text fill="#000000" font-family="sans-serif" font-size="14" lengthAdjust="spacing" textLength="115.9443" x="346" y="538.1426">apriori_analysis.py</text></g><!--entity Libs--><g class="entity" data-qualified-name="WebServer.Runtime Python.Libs" data-source-line="32" id="ent0011"><rect fill="#FFF3E0" height="47.6094" rx="2.5" ry="2.5" style="stroke:#E65100;stroke-width:0.5;" width="146.6201" x="148.5" y="503.6094"/><rect fill="#FFF3E0" height="10" style="stroke:#E65100;stroke-width:0.5;" width="15" x="275.1201" y="508.6094"/><rect fill="#FFF3E0" height="2" style="stroke:#E65100;stroke-width:0.5;" width="4" x="273.1201" y="510.6094"/><rect fill="#FFF3E0" height="2" style="stroke:#E65100;stroke-width:0.5;" width="4" x="273.1201" y="514.6094"/><text fill="#000000" font-family="sans-serif" font-size="14" lengthAdjust="spacing" textLength="106.6201" x="163.5" y="538.1426">mlxtend / pandas</text></g><!--entity tabel users--><g class="entity" data-qualified-name="WebServer.SQLite.tabel users" data-source-line="36" id="ent0013"><rect fill="#FFF3E0" height="47.6094" rx="2.5" ry="2.5" style="stroke:#E65100;stroke-width:0.5;" width="108.4824" x="1258" y="503.6094"/><rect fill="#FFF3E0" height="10" style="stroke:#E65100;stroke-width:0.5;" width="15" x="1346.4824" y="508.6094"/><rect fill="#FFF3E0" height="2" style="stroke:#E65100;stroke-width:0.5;" width="4" x="1344.4824" y="510.6094"/><rect fill="#FFF3E0" height="2" style="stroke:#E65100;stroke-width:0.5;" width="4" x="1344.4824" y="514.6094"/><text fill="#000000" font-family="sans-serif" font-size="14" lengthAdjust="spacing" textLength="68.4824" x="1273" y="538.1426">tabel users</text></g><!--entity tabel sessions--><g class="entity" data-qualified-name="WebServer.SQLite.tabel sessions" data-source-line="37" id="ent0014"><rect fill="#FFF3E0" height="47.6094" rx="2.5" ry="2.5" style="stroke:#E65100;stroke-width:0.5;" width="128.7168" x="1093.5" y="503.6094"/><rect fill="#FFF3E0" height="10" style="stroke:#E65100;stroke-width:0.5;" width="15" x="1202.2168" y="508.6094"/><rect fill="#FFF3E0" height="2" style="stroke:#E65100;stroke-width:0.5;" width="4" x="1200.2168" y="510.6094"/><rect fill="#FFF3E0" height="2" style="stroke:#E65100;stroke-width:0.5;" width="4" x="1200.2168" y="514.6094"/><text fill="#000000" font-family="sans-serif" font-size="14" lengthAdjust="spacing" textLength="88.7168" x="1108.5" y="538.1426">tabel sessions</text></g><!--link Workstation to WebServer--><g class="link" data-entity-1="ent0001" data-entity-2="ent0003" data-link-type="dependency" data-source-line="45" id="lnk18"><path d="M787.5605,121.1121 C786.8736,121.3159 786.1467,121.5316 785.3804,121.7589 C779.2501,123.5776 770.6026,126.143 759.7975,129.3483 C738.1873,135.759 707.9468,144.7296 671.953,155.4067 C635.9591,166.0838 594.212,178.4675 549.5885,191.7042 C527.2768,198.3226 504.246,205.1543 480.8557,212.0926 C469.1606,215.5617 457.3756,219.0575 445.5457,222.5666 C439.6308,224.3212 433.7046,226.0791 427.7728,227.8386 C424.8069,228.7184 421.8396,229.5986 418.8716,230.479 C418.1296,230.6991 417.3876,230.9192 416.6455,231.1393 C416.2745,231.2494 420.697,229.9376 420.3259,230.0476" fill="none" id="Workstation-to-WebServer" style="stroke:#181818;stroke-width:1;"/><polygon fill="#181818" points="415.5324,231.4695,425.2983,232.7449,420.3259,230.0476,423.0232,225.0752,415.5324,231.4695" style="stroke:#181818;stroke-width:1;stroke-linejoin:miter;stroke-miterlimit:10;"/><text fill="#000000" font-family="sans-serif" font-size="13" lengthAdjust="spacing" textLength="87.3882" x="547" y="204.1045">HTTPS / HTTP</text></g><!--link Browser to PHP--><g class="link" data-entity-1="ent0002" data-entity-2="ent0005" data-link-type="dependency" data-source-line="46" id="lnk19"><path d="M939,141.8294 C939,185.7194 939,275.3894 939,319.3294" fill="none" id="Browser-to-PHP" style="stroke:#181818;stroke-width:1;"/><polygon fill="#181818" points="939,324.3294,943,315.3294,939,319.3294,935,315.3294,939,324.3294" style="stroke:#181818;stroke-width:1;stroke-linejoin:miter;stroke-miterlimit:10;"/><text fill="#000000" font-family="sans-serif" font-size="13" lengthAdjust="spacing" textLength="65.0381" x="940" y="204.1045">permintaan</text></g><!--link PHP to Python--><g class="link" data-entity-1="ent0005" data-entity-2="ent0009" data-link-type="dependency" data-source-line="47" id="lnk20"><path d="M876.48,367.6194 C797.17,390.4994 670.3,427.2094 668,428.6094 C636.16,448.0294 611.0063,477.1341 594.2263,499.4341" fill="none" id="PHP-to-Python" style="stroke:#181818;stroke-width:1;"/><polygon fill="#181818" points="591.22,503.4294,599.8276,498.6429,594.2263,499.4341,593.4351,493.8329,591.22,503.4294" style="stroke:#181818;stroke-width:1;stroke-linejoin:miter;stroke-miterlimit:10;"/><text fill="#000000" font-family="sans-serif" font-size="13" lengthAdjust="spacing" textLength="81.6309" x="750" y="417.1045">Process::run()</text></g><!--link Python to ProductsCSV--><g class="link" data-entity-1="ent0009" data-entity-2="ent0015" data-link-type="dependency" data-source-line="48" id="lnk21"><path d="M599.44,551.7894 C627.69,578.5894 670.0622,618.7886 696.6422,643.9986" fill="none" id="Python-to-ProductsCSV" style="stroke:#181818;stroke-width:1;"/><polygon fill="#181818" points="700.27,647.4394,696.4926,638.3437,696.6422,643.9986,690.9873,644.1482,700.27,647.4394" style="stroke:#181818;stroke-width:1;stroke-linejoin:miter;stroke-miterlimit:10;"/><text fill="#000000" font-family="sans-serif" font-size="13" lengthAdjust="spacing" textLength="28.1899" x="666" y="614.1045">baca</text></g><!--link Python to TransactionsCSV--><g class="link" data-entity-1="ent0009" data-entity-2="ent0016" data-link-type="dependency" data-source-line="49" id="lnk22"><path d="M562.78,551.7894 C548.66,578.5894 527.9803,617.8056 514.7003,643.0156" fill="none" id="Python-to-TransactionsCSV" style="stroke:#181818;stroke-width:1;"/><polygon fill="#181818" points="512.37,647.4394,520.1036,641.3409,514.7003,643.0156,513.0256,637.6124,512.37,647.4394" style="stroke:#181818;stroke-width:1;stroke-linejoin:miter;stroke-miterlimit:10;"/><text fill="#000000" font-family="sans-serif" font-size="13" lengthAdjust="spacing" textLength="28.1899" x="537" y="614.1045">baca</text></g><!--link Python to RulesCSV--><g class="link" data-entity-1="ent0009" data-entity-2="ent0017" data-link-type="dependency" data-source-line="50" id="lnk23"><path d="M554.3,551.8294 C541.31,565.1494 523.55,581.2394 505,591.6094 C450.7,621.9694 387.8333,640.1755 335.6733,651.6455" fill="none" id="Python-to-RulesCSV" style="stroke:#181818;stroke-width:1;"/><polygon fill="#181818" points="330.79,652.7194,340.4391,654.6931,335.6733,651.6455,338.7209,646.8798,330.79,652.7194" style="stroke:#181818;stroke-width:1;stroke-linejoin:miter;stroke-miterlimit:10;"/><text fill="#000000" font-family="sans-serif" font-size="13" lengthAdjust="spacing" textLength="23.1182" x="486" y="614.1045">tulis</text></g><!--link PHP to RulesCSV--><g class="link" data-entity-1="ent0005" data-entity-2="ent0017" data-link-type="dependency" data-source-line="51" id="lnk24"><path d="M876.4,368.9294 C870.56,370.3294 864.69,371.5894 859,372.6094 C775.98,387.4494 159.4,366.8094 102,428.6094 C52.7,481.6894 64.25,529.7794 102,591.6094 C118.37,618.4194 143.0001,634.2215 171.1301,645.6915" fill="none" id="PHP-to-RulesCSV" style="stroke:#181818;stroke-width:1;"/><polygon fill="#181818" points="175.76,647.5794,168.9364,640.4773,171.1301,645.6915,165.9159,647.8852,175.76,647.5794" style="stroke:#181818;stroke-width:1;stroke-linejoin:miter;stroke-miterlimit:10;"/><text fill="#000000" font-family="sans-serif" font-size="13" lengthAdjust="spacing" textLength="28.1899" x="103" y="533.1045">baca</text></g><!--link PHP to SQLite--><g class="link" data-entity-1="ent0005" data-entity-2="ent0012" data-link-type="dependency" data-source-line="52" id="lnk25"><path d="M967.43,372.9194 C983.89,387.5594 1004.05,407.6094 1018,428.6094 C1030.815,447.8944 1040.705,471.9369 1047.445,491.3819 C1048.2875,493.8125 1049.0808,496.1713 1049.8244,498.44 C1049.8709,498.5818 1048.3645,493.9704 1048.4106,494.1115" fill="none" id="PHP-to-SQLite" style="stroke:#181818;stroke-width:1;"/><polygon fill="#181818" points="1049.9633,498.8643,1050.9708,489.0671,1048.4106,494.1115,1043.3663,491.5513,1049.9633,498.8643" style="stroke:#181818;stroke-width:1;stroke-linejoin:miter;stroke-miterlimit:10;"/><text fill="#000000" font-family="sans-serif" font-size="13" lengthAdjust="spacing" textLength="32.519" x="1011" y="417.1045">query</text></g><!--link PHP to Views--><g class="link" data-entity-1="ent0005" data-entity-2="ent0007" data-link-type="dependency" data-source-line="53" id="lnk26"><path d="M935.27,372.7594 C933.96,382.0194 932.65,392.7894 932,402.6094 C929.7,437.6294 930.5178,473.3239 931.5778,498.2739" fill="none" id="PHP-to-Views" style="stroke:#181818;stroke-width:1;"/><polygon fill="#181818" points="931.79,503.2694,935.4044,494.1077,931.5778,498.2739,927.4116,494.4473,931.79,503.2694" style="stroke:#181818;stroke-width:1;stroke-linejoin:miter;stroke-miterlimit:10;"/><text fill="#000000" font-family="sans-serif" font-size="13" lengthAdjust="spacing" textLength="37.5781" x="933" y="417.1045">render</text></g><!--link Views to Browser--><g class="link" data-entity-1="ent0007" data-entity-2="ent0002" data-link-type="dependency" data-source-line="54" id="lnk27"><path d="M958.79,503.4694 C993.06,472.7094 1049.38,421.9994 1050,420.6094 C1092.12,325.6194 1063.94,280.7294 1014,189.6094 C1003.74,170.8994 990.6835,157.4132 975.5035,144.9432" fill="none" id="Views-to-Browser" style="stroke:#181818;stroke-width:1;"/><polygon fill="#181818" points="971.64,141.7694,976.0553,150.5731,975.5035,144.9432,981.1334,144.3914,971.64,141.7694" style="stroke:#181818;stroke-width:1;stroke-linejoin:miter;stroke-miterlimit:10;"/><text fill="#000000" font-family="sans-serif" font-size="13" lengthAdjust="spacing" textLength="46.249" x="1071" y="354.1045">respons</text></g><?plantuml-src TLHDRzf04BtxLwpefJs4XY3Ib4CbFcobQYgv0IM7AaA3FILRrhlkpZe1HVtldLqRCAJ11pppthnvipiohQKkmK8Xbf2jLzPKEfyOPQnubyJ-YMZFq2P7yH89_erFoN4_kKYcDMPiZhR9zmQNWybvzBSbavcYD1grUqihIP9-VFvQAxuSzCwFjS0w-GkoDwNYgsGGVtujTH5_clOlM2foqYaKeyh26A5oMp7-Aix4LCBAwq-nL6PRiDae2kDtPWv8LbfyG_iRH8fwjQeqT0IGk3TsJGwSDBhnytDipJEX5VUuVF2K9lQD6pcqJpLUI-2ooTG29Gy4A-QDIYNNt5dSyDnFg4Ilrzrq6bPebLwduggx4KdwFRJY-02EDAYjanbDZ7RMA8Ksa0xXWJk7efGAj1Who37GxYG-Ks2myIDVjvLsia2HRjsZqSU6GahqkvlQJmWFC9HM6YiNuAsHf6wv3RnPPcNf3hn2RHpgN7pafZe72gGRkJpoauE39P0_q1ytqc4upFgrROb9V7GLtm0zd6O9YVZc6g3HtUzNfxGchpAtoForpHuHNQ-RqLDebDOOJMPt9rNEWYP-yyAdLVCMzheIY4mcmp8jRAMGzdMtFl85xB6zScTdNrhxCnJNytawusFp_z5k4Jt9RyfGb6WBgHs0ZdmY0FMD3Vr06H_7S6Wh_Vv3rEG3vJ0gy_YR0MtqPAJ_C7Rc6NALahJltGBgcYRVNE9G_AdGRlVfi96SjRmQlBnrw87Te1uY_ivGz0y0?></g></svg>