<svg xmlns="http://www.w3.org/2000/svg" xmlns:xlink="http://www.w3.org/1999/xlink" contentStyleType="text/css" data-diagram-type="STATE" height="1058px" preserveAspectRatio="none" style="width:952px;height:1058px;background:#FEFEFE;" version="1.1" viewBox="0 0 952 1058" width="952px" zoomAndPan="magnify"><?plantuml 1.2026.6?><defs/><g><rect fill="#FEFEFE" height="1058" style="stroke:none;stroke-width:1;" width="952" x="0" y="0"/><g class="title" data-source-line="9"><text fill="#000000" font-family="sans-serif" font-size="14" font-weight="700" lengthAdjust="spacing" textLength="203.0547" x="371.2175" y="24.5332">AuraBeauty BI - Diagram State</text><text fill="#000000" font-family="sans-serif" font-size="14" font-weight="700" lengthAdjust="spacing" textLength="173.5166" x="385.9866" y="42.1426">Pekerjaan Analisis Apriori</text></g><g class="start_entity" data-qualified-name=".start." data-source-line="11" id="ent0001"><ellipse cx="507" cy="72.2188" fill="#222222" rx="10" ry="10" style="stroke:#222222;stroke-width:1;"/></g><g class="entity" data-qualified-name="Idle" data-source-line="11" id="ent0002"><rect fill="#E3F2FD" height="50" rx="12.5" ry="12.5" style="stroke:#1565C0;stroke-width:0.5;" width="50" x="482" y="143.2188"/><line style="stroke:#1565C0;stroke-width:0.5;" x1="482" x2="532" y1="170.8281" y2="170.8281"/><text fill="#000000" font-family="sans-serif" font-size="14" lengthAdjust="spacing" textLength="22.5723" x="495.7139" y="162.752">Idle</text></g><g class="entity" data-qualified-name="Running" data-source-line="13" id="ent0004"><rect fill="#E3F2FD" height="50" rx="12.5" ry="12.5" style="stroke:#1565C0;stroke-width:0.5;" width="72.1514" x="471" y="271.2188"/><line style="stroke:#1565C0;stroke-width:0.5;" x1="471" x2="543.1514" y1="298.8281" y2="298.8281"/><text fill="#000000" font-family="sans-serif" font-size="14" lengthAdjust="spacing" textLength="52.1514" x="481" y="290.752">Running</text></g><g class="entity" data-qualified-name="MemuatData" data-source-line="15" id="ent0006"><rect fill="#E3F2FD" height="50" rx="12.5" ry="12.5" style="stroke:#1565C0;stroke-width:0.5;" width="100.1445" x="381" y="399.2188"/><line style="stroke:#1565C0;stroke-width:0.5;" x1="381" x2="481.1445" y1="426.8281" y2="426.8281"/><text fill="#000000" font-family="sans-serif" font-size="14" lengthAdjust="spacing" textLength="80.1445" x="391" y="418.752">MemuatData</text></g><g class="entity" data-qualified-name="Memproses" data-source-line="17" id="ent0008"><rect fill="#E3F2FD" height="50" rx="12.5" ry="12.5" style="stroke:#1565C0;stroke-width:0.5;" width="93.1309" x="221.5" y="527.2188"/><line style="stroke:#1565C0;stroke-width:0.5;" x1="221.5" x2="314.6309" y1="554.8281" y2="554.8281"/><text fill="#000000" font-family="sans-serif" font-size="14" lengthAdjust="spacing" textLength="73.1309" x="231.5" y="546.752">Memproses</text></g><g class="entity" data-qualified-name="MenghasilkanAturan" data-source-line="19" id="ent0010"><rect fill="#E3F2FD" height="50" rx="12.5" ry="12.5" style="stroke:#1565C0;stroke-width:0.5;" width="147.6338" x="207" y="655.2188"/><line style="stroke:#1565C0;stroke-width:0.5;" x1="207" x2="354.6338" y1="682.8281" y2="682.8281"/><text fill="#000000" font-family="sans-serif" font-size="14" lengthAdjust="spacing" textLength="127.6338" x="217" y="674.752">MenghasilkanAturan</text></g><g class="entity" data-qualified-name="MenyimpanHasil" data-source-line="21" id="ent0012"><rect fill="#E3F2FD" height="50" rx="12.5" ry="12.5" style="stroke:#1565C0;stroke-width:0.5;" width="123.4824" x="203.5" y="783.2188"/><line style="stroke:#1565C0;stroke-width:0.5;" x1="203.5" x2="326.9824" y1="810.8281" y2="810.8281"/><text fill="#000000" font-family="sans-serif" font-size="14" lengthAdjust="spacing" textLength="103.4824" x="213.5" y="802.752">MenyimpanHasil</text></g><g class="entity" data-qualified-name="Sukses" data-source-line="23" id="ent0014"><rect fill="#E3F2FD" height="50" rx="12.5" ry="12.5" style="stroke:#1565C0;stroke-width:0.5;" width="65.9102" x="103" y="911.2188"/><line style="stroke:#1565C0;stroke-width:0.5;" x1="103" x2="168.9102" y1="938.8281" y2="938.8281"/><text fill="#000000" font-family="sans-serif" font-size="14" lengthAdjust="spacing" textLength="45.9102" x="113" y="930.752">Sukses</text></g><g class="entity" data-qualified-name="Error" data-source-line="26" id="ent0017"><rect fill="#E3F2FD" height="50" rx="12.5" ry="12.5" style="stroke:#1565C0;stroke-width:0.5;" width="51.1104" x="349.5" y="911.2188"/><line style="stroke:#1565C0;stroke-width:0.5;" x1="349.5" x2="400.6104" y1="938.8281" y2="938.8281"/><text fill="#000000" font-family="sans-serif" font-size="14" lengthAdjust="spacing" textLength="31.1104" x="359.5" y="930.752">Error</text></g><g class="end_entity" data-qualified-name=".end." data-source-line="33" id="ent0023"><ellipse cx="200" cy="1033.2188" fill="none" rx="11" ry="11" style="stroke:#222222;stroke-width:1;"/><ellipse cx="200" cy="1033.2188" fill="#222222" rx="6" ry="6" style="stroke:#222222;stroke-width:1;"/></g><!--link *start* to Idle--><g class="link" data-entity-1="ent0001" data-entity-2="ent0002" data-link-type="dependency" data-source-line="11" id="lnk3"><path d="M507,82.2287 C507,96.1087 507,118.1888 507,138.0588" fill="none" id="*start*-to-Idle" style="stroke:#424242;stroke-width:1;"/><polygon fill="#424242" points="507,143.0588,511,134.0588,507,138.0588,503,134.0588,507,143.0588" style="stroke:#424242;stroke-width:1;stroke-linejoin:miter;stroke-miterlimit:10;"/></g><!--link Idle to Running--><g class="link" data-entity-1="ent0002" data-entity-2="ent0004" data-link-type="dependency" data-source-line="13" id="lnk5"><path d="M507,193.5087 C507,215.8288 507,243.7088 507,265.9988" fill="none" id="Idle-to-Running" style="stroke:#424242;stroke-width:1;"/><polygon fill="#424242" points="507,270.9988,511,261.9988,507,265.9988,503,261.9988,507,270.9988" style="stroke:#424242;stroke-width:1;stroke-linejoin:miter;stroke-miterlimit:10;"/><text fill="#000000" font-family="sans-serif" font-size="13" lengthAdjust="spacing" textLength="161.1479" x="508" y="237.7139">Pengguna klik Run Analysis</text></g><!--link Running to MemuatData--><g class="link" data-entity-1="ent0004" data-entity-2="ent0006" data-link-type="dependency" data-source-line="15" id="lnk7"><path d="M470.86,312.2587 C454.65,321.0588 437.15,333.8787 428,351.2188 C420.29,365.8288 420.3868,379.5985 423.2068,394.2785" fill="none" id="Running-to-MemuatData" style="stroke:#424242;stroke-width:1;"/><polygon fill="#424242" points="424.15,399.1888,426.3803,389.5958,423.2068,394.2785,418.524,391.1049,424.15,399.1888" style="stroke:#424242;stroke-width:1;stroke-linejoin:miter;stroke-miterlimit:10;"/><text fill="#000000" font-family="sans-serif" font-size="13" lengthAdjust="spacing" textLength="206.6797" x="429" y="365.7139">Laravel menjalankan proses Python</text></g><!--link MemuatData to Memproses--><g class="link" data-entity-1="ent0006" data-entity-2="ent0008" data-link-type="dependency" data-source-line="17" id="lnk9"><path d="M380.94,425.4288 C339.77,428.5988 283.69,440.4088 255,479.2188 C244.88,492.9088 247.0356,507.3575 253.1756,522.4475" fill="none" id="MemuatData-to-Memproses" style="stroke:#424242;stroke-width:1;"/><polygon fill="#424242" points="255.06,527.0788,255.373,517.2349,253.1756,522.4475,247.963,520.25,255.06,527.0788" style="stroke:#424242;stroke-width:1;stroke-linejoin:miter;stroke-miterlimit:10;"/><text fill="#000000" font-family="sans-serif" font-size="13" lengthAdjust="spacing" textLength="203.0806" x="256" y="493.7139">CSV diparse &amp; keranjang dibangun</text></g><!--link Memproses to MenghasilkanAturan--><g class="link" data-entity-1="ent0008" data-entity-2="ent0010" data-link-type="dependency" data-source-line="19" id="lnk11"><path d="M270.51,577.5088 C272.81,599.8288 275.6868,627.7352 277.9868,650.0252" fill="none" id="Memproses-to-MenghasilkanAturan" style="stroke:#424242;stroke-width:1;"/><polygon fill="#424242" points="278.5,654.9988,281.5551,645.6357,277.9868,650.0252,273.5974,646.4568,278.5,654.9988" style="stroke:#424242;stroke-width:1;stroke-linejoin:miter;stroke-miterlimit:10;"/><text fill="#000000" font-family="sans-serif" font-size="13" lengthAdjust="spacing" textLength="160.3926" x="276" y="621.7139">Algoritma Apriori dieksekusi</text></g><!--link MenghasilkanAturan to MenyimpanHasil--><g class="link" data-entity-1="ent0010" data-entity-2="ent0012" data-link-type="dependency" data-source-line="21" id="lnk13"><path d="M277.92,705.5088 C275.08,727.8288 271.5398,755.7486 268.7098,778.0386" fill="none" id="MenghasilkanAturan-to-MenyimpanHasil" style="stroke:#424242;stroke-width:1;"/><polygon fill="#424242" points="268.08,782.9988,273.1817,774.5742,268.7098,778.0386,265.2454,773.5666,268.08,782.9988" style="stroke:#424242;stroke-width:1;stroke-linejoin:miter;stroke-miterlimit:10;"/><text fill="#000000" font-family="sans-serif" font-size="13" lengthAdjust="spacing" textLength="167.667" x="274" y="749.7139">Aturan diurutkan &amp; dipetakan</text></g><!--link MenyimpanHasil to Sukses--><g class="link" data-entity-1="ent0012" data-entity-2="ent0014" data-link-type="dependency" data-source-line="23" id="lnk15"><path d="M203.31,829.9588 C186.68,838.0888 170,848.9788 158,863.2188 C146.63,876.7188 142.0008,891.0734 139.3408,906.2934" fill="none" id="MenyimpanHasil-to-Sukses" style="stroke:#424242;stroke-width:1;"/><polygon fill="#424242" points="138.48,911.2188,143.9697,903.0418,139.3408,906.2934,136.0892,901.6645,138.48,911.2188" style="stroke:#424242;stroke-width:1;stroke-linejoin:miter;stroke-miterlimit:10;"/><text fill="#000000" font-family="sans-serif" font-size="13" lengthAdjust="spacing" textLength="87.4199" x="159" y="877.7139">CSV tersimpan</text></g><!--link Sukses to Idle--><g class="link" data-entity-1="ent0014" data-entity-2="ent0002" data-link-type="dependency" data-source-line="24" id="lnk16"><path d="M102.86,920.7188 C64.34,901.3488 6,863.1188 6,809.2188 C6,295.2188 6,295.2188 6,295.2188 C6,195.9987 375.2241,174.3704 476.8141,170.2704" fill="none" id="Sukses-to-Idle" style="stroke:#424242;stroke-width:1;"/><polygon fill="#424242" points="481.81,170.0688,472.656,166.4349,476.8141,170.2704,472.9786,174.4284,481.81,170.0688" style="stroke:#424242;stroke-width:1;stroke-linejoin:miter;stroke-miterlimit:10;"/><text fill="#000000" font-family="sans-serif" font-size="13" lengthAdjust="spacing" textLength="178.5024" x="7" y="557.7139">Redirect dengan pesan sukses</text></g><!--link MenyimpanHasil to Error--><g class="link" data-entity-1="ent0012" data-entity-2="ent0017" data-link-type="dependency" data-source-line="26" id="lnk18"><path d="M257.44,833.3588 C254.28,848.2588 253.13,867.1388 262,881.2188 C281.02,911.3788 317.1564,923.986 344.1964,929.926" fill="none" id="MenyimpanHasil-to-Error" style="stroke:#424242;stroke-width:1;"/><polygon fill="#424242" points="349.08,930.9988,341.1478,925.1609,344.1964,929.926,339.4314,932.9746,349.08,930.9988" style="stroke:#424242;stroke-width:1;stroke-linejoin:miter;stroke-miterlimit:10;"/><text fill="#000000" font-family="sans-serif" font-size="13" lengthAdjust="spacing" textLength="196.5552" x="263" y="877.7139">Gagal menulis file / aturan kosong</text></g><!--link Memproses to Error--><g class="link" data-entity-1="ent0008" data-entity-2="ent0017" data-link-type="dependency" data-source-line="27" id="lnk19"><path d="M221.31,575.9188 C162.5,608.1588 70.93,672.3788 87,753.2188 C99.01,813.6088 92.99,841.4588 140,881.2188 C171.64,907.9788 289.957,925.042 344.187,931.672" fill="none" id="Memproses-to-Error" style="stroke:#424242;stroke-width:1;"/><polygon fill="#424242" points="349.15,932.2788,340.7019,927.2161,344.187,931.672,339.7311,935.157,349.15,932.2788" style="stroke:#424242;stroke-width:1;stroke-linejoin:miter;stroke-miterlimit:10;"/><text fill="#000000" font-family="sans-serif" font-size="13" lengthAdjust="spacing" textLength="175.5762" x="88" y="749.7139">Error mlxtend / data tidak valid</text></g><!--link MemuatData to Error--><g class="link" data-entity-1="ent0006" data-entity-2="ent0017" data-link-type="dependency" data-source-line="28" id="lnk20"><path d="M448.71,449.4388 C464.78,473.8588 486,513.2688 486,551.2188 C486,551.2188 486,551.2188 486,809.2188 C486,842.6788 484.54,854.8088 464,881.2188 C447.69,902.1888 425.3534,914.8807 405.3734,923.5907" fill="none" id="MemuatData-to-Error" style="stroke:#424242;stroke-width:1;"/><polygon fill="#424242" points="400.79,925.5888,410.6386,925.6589,405.3734,923.5907,407.4417,918.3255,400.79,925.5888" style="stroke:#424242;stroke-width:1;stroke-linejoin:miter;stroke-miterlimit:10;"/><text fill="#000000" font-family="sans-serif" font-size="13" lengthAdjust="spacing" textLength="121.3926" x="487" y="685.7139">CSV tidak ditemukan</text></g><!--link Error to Idle--><g class="link" data-entity-1="ent0017" data-entity-2="ent0002" data-link-type="dependency" data-source-line="30" id="lnk21"><path d="M400.61,932.6788 C488.14,923.2988 770,887.0488 770,809.2188 C770,295.2188 770,295.2188 770,295.2188 C770,190.4188 603.035,172.9419 537.215,170.0019" fill="none" id="Error-to-Idle" style="stroke:#424242;stroke-width:1;"/><polygon fill="#424242" points="532.22,169.7787,541.0325,174.1764,537.215,170.0019,541.3895,166.1843,532.22,169.7787" style="stroke:#424242;stroke-width:1;stroke-linejoin:miter;stroke-miterlimit:10;"/><text fill="#000000" font-family="sans-serif" font-size="13" lengthAdjust="spacing" textLength="165.4897" x="771" y="557.7139">Redirect dengan pesan error</text></g><!--link Error to Running--><g class="link" data-entity-1="ent0017" data-entity-2="ent0004" data-link-type="dependency" data-source-line="31" id="lnk22"><path d="M400.72,935.5387 C471.17,934.9288 662,922.8188 662,809.2188 C662,423.2188 662,423.2188 662,423.2188 C662,389.7587 662.58,375.9088 640,351.2188 C614.69,323.5388 578.0499,310.8382 548.1299,304.1582" fill="none" id="Error-to-Running" style="stroke:#424242;stroke-width:1;"/><polygon fill="#424242" points="543.25,303.0688,551.1622,308.9337,548.1299,304.1582,552.9053,301.1259,543.25,303.0688" style="stroke:#424242;stroke-width:1;stroke-linejoin:miter;stroke-miterlimit:10;"/><text fill="#000000" font-family="sans-serif" font-size="13" lengthAdjust="spacing" textLength="83.8208" x="663" y="621.7139">Ulangi analisis</text></g><!--link Sukses to *end*--><g class="link" data-entity-1="ent0014" data-entity-2="ent0023" data-link-type="dependency" data-source-line="33" id="lnk24"><path d="M152.48,961.6788 C166.11,981.9188 181.908,1005.3509 191.278,1019.2709" fill="none" id="Sukses-to-*end*" style="stroke:#424242;stroke-width:1;"/><polygon fill="#424242" points="194.07,1023.4188,192.3626,1013.719,191.278,1019.2709,185.7261,1018.1863,194.07,1023.4188" style="stroke:#424242;stroke-width:1;stroke-linejoin:miter;stroke-miterlimit:10;"/></g><!--link Error to *end*--><g class="link" data-entity-1="ent0017" data-entity-2="ent0023" data-link-type="dependency" data-source-line="34" id="lnk25"><path d="M349.18,951.2388 C309.44,972.8088 239.5551,1010.7548 213.6151,1024.8248" fill="none" id="Error-to-*end*" style="stroke:#424242;stroke-width:1;"/><polygon fill="#424242" points="209.22,1027.2088,219.0383,1026.4338,213.6151,1024.8248,215.224,1019.4016,209.22,1027.2088" style="stroke:#424242;stroke-width:1;stroke-linejoin:miter;stroke-miterlimit:10;"/></g><?plantuml-src XL9BYnGn4BxdLnG8Un06TNKzx47eUUc2mh23NjH3xQRCrYQT37ci3k9_jvBkTfjHi0D9f-hxldgaacL_m8WztE2jDJ4KhrV1XGXFjfkwLFg3I1apmKy5yYrFqPkNs_FjUl25g2cEzXSNhozMpvkzYp5y7yslpkjIlvJAd1r1Lo8k2Ki-ml8A5h1cD3NcliRyudTaATuZUkWyEawSe3j43f6L-lpqAomMR-1AErAgxkrwNRndR-0ITkIDAHx1EhRLtaIE8gBKXAgC3zGNp6lCAAJtKl83EUZ9twD3RoNs8OP42NR7V1UyKZFyI1y1bx3QVmBDqhP4S0QIEugAXD5y8qSPo2Dwu7fpXucTXEcozCABIEUC59Xxd6eLEjb4jYIk0dzHHgKZzmVqxwglgWm-pIMMNAiugvbHHlblAdDuLTWN-rX4ffYQNutcgTFYloRDaMupQ4cbjeUIxAdX_gcyaG68GdoB1bjdYpmbV6DHUmOuv6b32jwSj6SY3cVlVcJoMZYwzZwpHWiFCXRwz4acNgkamJHdWRJI1-T_ww4Acu4Vv-gZZ8LXm74YrRn5CfGpJhtz1W00?></g></svg>