<svg xmlns="http://www.w3.org/2000/svg" xmlns:xlink="http://www.w3.org/1999/xlink" contentStyleType="text/css" data-diagram-type="ACTIVITY" height="1232px" preserveAspectRatio="none" style="width:499px;height:1232px;background:#FEFEFE;" version="1.1" viewBox="0 0 499 1232" width="499px" zoomAndPan="magnify"><?plantuml 1.2026.6?><defs/><g><rect fill="#FEFEFE" height="1232" style="stroke:none;stroke-width:1;" width="499" x="0" y="0"/><g class="title" data-source-line="11"><text fill="#000000" font-family="sans-serif" font-size="14" font-weight="700" lengthAdjust="spacing" textLength="227.1787" x="135.2017" y="34.5332">AuraBeauty BI - Diagram Aktivitas</text><text fill="#000000" font-family="sans-serif" font-size="14" font-weight="700" lengthAdjust="spacing" textLength="161.041" x="168.2705" y="52.1426">Pipeline Analisis Apriori</text></g><ellipse cx="272.3154" cy="81.2188" fill="#2E7D32" rx="10" ry="10" style="stroke:#222222;stroke-width:1;"/><rect fill="#E3F2FD" height="35.0938" rx="12.5" ry="12.5" style="stroke:#1565C0;stroke-width:0.5;" width="209.3047" x="167.6631" y="111.2188"/><text fill="#000000" font-family="sans-serif" font-size="12" lengthAdjust="spacing" textLength="189.3047" x="177.6631" y="133.6758">Pengguna menekan "Run Analysis"</text><rect fill="#E3F2FD" height="35.0938" rx="12.5" ry="12.5" style="stroke:#1565C0;stroke-width:0.5;" width="190.748" x="176.9414" y="166.3125"/><text fill="#000000" font-family="sans-serif" font-size="12" lengthAdjust="spacing" textLength="170.748" x="186.9414" y="188.7695">Laravel memanggil skrip Python</text><rect fill="#E3F2FD" height="35.0938" rx="12.5" ry="12.5" style="stroke:#1565C0;stroke-width:0.5;" width="185.4336" x="179.5986" y="221.4063"/><text fill="#000000" font-family="sans-serif" font-size="12" lengthAdjust="spacing" textLength="165.4336" x="189.5986" y="243.8633">Muat product_code Sheet1.csv</text><rect fill="#E3F2FD" height="35.0938" rx="12.5" ry="12.5" style="stroke:#1565C0;stroke-width:0.5;" width="177.4121" x="183.6094" y="276.5"/><text fill="#000000" font-family="sans-serif" font-size="12" lengthAdjust="spacing" textLength="157.4121" x="193.6094" y="298.957">Muat transactions Sheet1.csv</text><rect fill="#E3F2FD" height="35.0938" rx="12.5" ry="12.5" style="stroke:#1565C0;stroke-width:0.5;" width="222.7754" x="160.9277" y="331.5938"/><text fill="#000000" font-family="sans-serif" font-size="12" lengthAdjust="spacing" textLength="202.7754" x="170.9277" y="354.0508">Bersihkan nama kolom &amp; kode produk</text><rect fill="#E3F2FD" height="35.0938" rx="12.5" ry="12.5" style="stroke:#1565C0;stroke-width:0.5;" width="216.7988" x="163.916" y="386.6875"/><text fill="#000000" font-family="sans-serif" font-size="12" lengthAdjust="spacing" textLength="196.7988" x="173.916" y="409.1445">Peta product_code ke product_name</text><rect fill="#E3F2FD" height="35.0938" rx="12.5" ry="12.5" style="stroke:#1565C0;stroke-width:0.5;" width="282.7988" x="130.916" y="441.7813"/><text fill="#000000" font-family="sans-serif" font-size="12" lengthAdjust="spacing" textLength="262.7988" x="140.916" y="464.2383">Kelompokkan transaksi berdasarkan customer_id</text><rect fill="#E3F2FD" height="35.0938" rx="12.5" ry="12.5" style="stroke:#1565C0;stroke-width:0.5;" width="217.8301" x="163.4004" y="496.875"/><text fill="#000000" font-family="sans-serif" font-size="12" lengthAdjust="spacing" textLength="197.8301" x="173.4004" y="519.332">Saring pelanggan dengan &gt; 1 produk</text><polygon fill="#E3F2FD" points="229.2124,551.9688,315.4185,551.9688,327.4185,563.9688,315.4185,575.9688,229.2124,575.9688,217.2124,563.9688,229.2124,551.9688" style="stroke:#1565C0;stroke-width:0.5;stroke-linejoin:miter;stroke-miterlimit:10;"/><text fill="#000000" font-family="sans-serif" font-size="11" lengthAdjust="spacing" textLength="86.2061" x="229.2124" y="568.4697">mlxtend terinstal?</text><text fill="#000000" font-family="sans-serif" font-size="11" lengthAdjust="spacing" textLength="11.6177" x="205.5947" y="561.5518">ya</text><text fill="#000000" font-family="sans-serif" font-size="11" lengthAdjust="spacing" textLength="23.2354" x="327.4185" y="561.5518">tidak</text><rect fill="#E3F2FD" height="35.0938" rx="12.5" ry="12.5" style="stroke:#1565C0;stroke-width:0.5;" width="270.8398" x="16" y="585.9688"/><text fill="#000000" font-family="sans-serif" font-size="12" lengthAdjust="spacing" textLength="250.8398" x="26" y="608.4258">Encode keranjang dengan TransactionEncoder</text><rect fill="#E3F2FD" height="35.0938" rx="12.5" ry="12.5" style="stroke:#1565C0;stroke-width:0.5;" width="270.4531" x="16.1934" y="641.0625"/><text fill="#000000" font-family="sans-serif" font-size="12" lengthAdjust="spacing" textLength="250.4531" x="26.1934" y="663.5195">Jalankan algoritma Apriori (min_support=1,5%)</text><rect fill="#E3F2FD" height="50.1875" rx="12.5" ry="12.5" style="stroke:#1565C0;stroke-width:0.5;" width="238.7773" x="32.0313" y="696.1563"/><text fill="#000000" font-family="sans-serif" font-size="12" lengthAdjust="spacing" textLength="142.0723" x="42.0313" y="718.6133">Hasilkan association_rules</text><text fill="#000000" font-family="sans-serif" font-size="12" lengthAdjust="spacing" textLength="218.7773" x="42.0313" y="733.707">(metric=confidence, min_threshold=10%)</text><rect fill="#E3F2FD" height="35.0938" rx="12.5" ry="12.5" style="stroke:#1565C0;stroke-width:0.5;" width="172.7422" x="306.8398" y="585.9688"/><text fill="#000000" font-family="sans-serif" font-size="12" lengthAdjust="spacing" textLength="152.7422" x="316.8398" y="608.4258">Hitung 1-itemset yang sering</text><rect fill="#E3F2FD" height="35.0938" rx="12.5" ry="12.5" style="stroke:#1565C0;stroke-width:0.5;" width="172.7422" x="306.8398" y="641.0625"/><text fill="#000000" font-family="sans-serif" font-size="12" lengthAdjust="spacing" textLength="152.7422" x="316.8398" y="663.5195">Hitung 2-itemset yang sering</text><rect fill="#E3F2FD" height="35.0938" rx="12.5" ry="12.5" style="stroke:#1565C0;stroke-width:0.5;" width="148.0742" x="319.1738" y="696.1563"/><text fill="#000000" font-family="sans-serif" font-size="12" lengthAdjust="spacing" textLength="128.0742" x="329.1738" y="718.6133">Hasilkan aturan berarah</text><rect fill="#E3F2FD" height="35.0938" rx="12.5" ry="12.5" style="stroke:#1565C0;stroke-width:0.5;" width="142.7363" x="321.8428" y="766.25"/><text fill="#000000" font-family="sans-serif" font-size="12" lengthAdjust="spacing" textLength="122.7363" x="331.8428" y="788.707">Hitung confidence &amp; lift</text><polygon fill="#E3F2FD" points="272.3154,807.3438,284.3154,819.3438,272.3154,831.3438,260.3154,819.3438,272.3154,807.3438" style="stroke:#1565C0;stroke-width:0.5;stroke-linejoin:miter;stroke-miterlimit:10;"/><rect fill="#E3F2FD" height="35.0938" rx="12.5" ry="12.5" style="stroke:#1565C0;stroke-width:0.5;" width="249.4648" x="147.583" y="851.3438"/><text fill="#000000" font-family="sans-serif" font-size="12" lengthAdjust="spacing" textLength="229.4648" x="157.583" y="873.8008">Urutkan aturan berdasarkan lift, confidence</text><rect fill="#E3F2FD" height="35.0938" rx="12.5" ry="12.5" style="stroke:#1565C0;stroke-width:0.5;" width="262.1738" x="141.2285" y="906.4375"/><text fill="#000000" font-family="sans-serif" font-size="12" lengthAdjust="spacing" textLength="242.1738" x="151.2285" y="928.8945">Peta antecedent/consequent ke nama produk</text><rect fill="#E3F2FD" height="35.0938" rx="12.5" ry="12.5" style="stroke:#1565C0;stroke-width:0.5;" width="162.7227" x="190.9541" y="961.5313"/><text fill="#000000" font-family="sans-serif" font-size="12" lengthAdjust="spacing" textLength="142.7227" x="200.9541" y="983.9883">Tulis association_rules.csv</text><polygon fill="#E3F2FD" points="216.0613,1016.625,328.5696,1016.625,340.5696,1028.625,328.5696,1040.625,216.0613,1040.625,204.0613,1028.625,216.0613,1016.625" style="stroke:#1565C0;stroke-width:0.5;stroke-linejoin:miter;stroke-miterlimit:10;"/><text fill="#000000" font-family="sans-serif" font-size="11" lengthAdjust="spacing" textLength="112.5083" x="216.0613" y="1033.126">Keluar Python sukses?</text><text fill="#000000" font-family="sans-serif" font-size="11" lengthAdjust="spacing" textLength="11.6177" x="192.4436" y="1026.208">ya</text><text fill="#000000" font-family="sans-serif" font-size="11" lengthAdjust="spacing" textLength="23.2354" x="340.5696" y="1026.208">tidak</text><rect fill="#E3F2FD" height="35.0938" rx="12.5" ry="12.5" style="stroke:#1565C0;stroke-width:0.5;" width="108.7109" x="118.5771" y="1050.625"/><text fill="#000000" font-family="sans-serif" font-size="12" lengthAdjust="spacing" textLength="88.7109" x="128.5771" y="1073.082">Catat log sukses</text><rect fill="#E3F2FD" height="35.0938" rx="12.5" ry="12.5" style="stroke:#1565C0;stroke-width:0.5;" width="184.7715" x="80.5469" y="1105.7188"/><text fill="#000000" font-family="sans-serif" font-size="12" lengthAdjust="spacing" textLength="164.7715" x="90.5469" y="1128.1758">Redirect dengan pesan sukses</text><rect fill="#E3F2FD" height="35.0938" rx="12.5" ry="12.5" style="stroke:#1565C0;stroke-width:0.5;" width="96.6992" x="323.3486" y="1050.625"/><text fill="#000000" font-family="sans-serif" font-size="12" lengthAdjust="spacing" textLength="76.6992" x="333.3486" y="1073.082">Catat log error</text><rect fill="#E3F2FD" height="35.0938" rx="12.5" ry="12.5" style="stroke:#1565C0;stroke-width:0.5;" width="172.7598" x="285.3184" y="1105.7188"/><text fill="#000000" font-family="sans-serif" font-size="12" lengthAdjust="spacing" textLength="152.7598" x="295.3184" y="1128.1758">Redirect dengan pesan error</text><polygon fill="#E3F2FD" points="272.3154,1146.8125,284.3154,1158.8125,272.3154,1170.8125,260.3154,1158.8125,272.3154,1146.8125" style="stroke:#1565C0;stroke-width:0.5;stroke-linejoin:miter;stroke-miterlimit:10;"/><ellipse cx="272.3154" cy="1201.8125" fill="none" rx="11" ry="11" style="stroke:#222222;stroke-width:1;"/><ellipse cx="272.3154" cy="1201.8125" fill="#222222" rx="6" ry="6" style="stroke:#222222;stroke-width:1;"/><line style="stroke:#424242;stroke-width:1;" x1="272.3154" x2="272.3154" y1="91.2188" y2="111.2188"/><polygon fill="#424242" points="268.3154,101.2188,272.3154,111.2188,276.3154,101.2188,272.3154,105.2188" style="stroke:#424242;stroke-width:1;stroke-linejoin:miter;stroke-miterlimit:10;"/><line style="stroke:#424242;stroke-width:1;" x1="272.3154" x2="272.3154" y1="146.3125" y2="166.3125"/><polygon fill="#424242" points="268.3154,156.3125,272.3154,166.3125,276.3154,156.3125,272.3154,160.3125" style="stroke:#424242;stroke-width:1;stroke-linejoin:miter;stroke-miterlimit:10;"/><line style="stroke:#424242;stroke-width:1;" x1="272.3154" x2="272.3154" y1="201.4063" y2="221.4063"/><polygon fill="#424242" points="268.3154,211.4063,272.3154,221.4063,276.3154,211.4063,272.3154,215.4063" style="stroke:#424242;stroke-width:1;stroke-linejoin:miter;stroke-miterlimit:10;"/><line style="stroke:#424242;stroke-width:1;" x1="272.3154" x2="272.3154" y1="256.5" y2="276.5"/><polygon fill="#424242" points="268.3154,266.5,272.3154,276.5,276.3154,266.5,272.3154,270.5" style="stroke:#424242;stroke-width:1;stroke-linejoin:miter;stroke-miterlimit:10;"/><line style="stroke:#424242;stroke-width:1;" x1="272.3154" x2="272.3154" y1="311.5938" y2="331.5938"/><polygon fill="#424242" points="268.3154,321.5938,272.3154,331.5938,276.3154,321.5938,272.3154,325.5938" style="stroke:#424242;stroke-width:1;stroke-linejoin:miter;stroke-miterlimit:10;"/><line style="stroke:#424242;stroke-width:1;" x1="272.3154" x2="272.3154" y1="366.6875" y2="386.6875"/><polygon fill="#424242" points="268.3154,376.6875,272.3154,386.6875,276.3154,376.6875,272.3154,380.6875" style="stroke:#424242;stroke-width:1;stroke-linejoin:miter;stroke-miterlimit:10;"/><line style="stroke:#424242;stroke-width:1;" x1="272.3154" x2="272.3154" y1="421.7813" y2="441.7813"/><polygon fill="#424242" points="268.3154,431.7813,272.3154,441.7813,276.3154,431.7813,272.3154,435.7813" style="stroke:#424242;stroke-width:1;stroke-linejoin:miter;stroke-miterlimit:10;"/><line style="stroke:#424242;stroke-width:1;" x1="272.3154" x2="272.3154" y1="476.875" y2="496.875"/><polygon fill="#424242" points="268.3154,486.875,272.3154,496.875,276.3154,486.875,272.3154,490.875" style="stroke:#424242;stroke-width:1;stroke-linejoin:miter;stroke-miterlimit:10;"/><line style="stroke:#424242;stroke-width:1;" x1="151.4199" x2="151.4199" y1="621.0625" y2="641.0625"/><polygon fill="#424242" points="147.4199,631.0625,151.4199,641.0625,155.4199,631.0625,151.4199,635.0625" style="stroke:#424242;stroke-width:1;stroke-linejoin:miter;stroke-miterlimit:10;"/><line style="stroke:#424242;stroke-width:1;" x1="151.4199" x2="151.4199" y1="676.1563" y2="696.1563"/><polygon fill="#424242" points="147.4199,686.1563,151.4199,696.1563,155.4199,686.1563,151.4199,690.1563" style="stroke:#424242;stroke-width:1;stroke-linejoin:miter;stroke-miterlimit:10;"/><line style="stroke:#424242;stroke-width:1;" x1="393.2109" x2="393.2109" y1="621.0625" y2="641.0625"/><polygon fill="#424242" points="389.2109,631.0625,393.2109,641.0625,397.2109,631.0625,393.2109,635.0625" style="stroke:#424242;stroke-width:1;stroke-linejoin:miter;stroke-miterlimit:10;"/><line style="stroke:#424242;stroke-width:1;" x1="393.2109" x2="393.2109" y1="676.1563" y2="696.1563"/><polygon fill="#424242" points="389.2109,686.1563,393.2109,696.1563,397.2109,686.1563,393.2109,690.1563" style="stroke:#424242;stroke-width:1;stroke-linejoin:miter;stroke-miterlimit:10;"/><line style="stroke:#424242;stroke-width:1;" x1="393.2109" x2="393.2109" y1="731.25" y2="766.25"/><polygon fill="#424242" points="389.2109,756.25,393.2109,766.25,397.2109,756.25,393.2109,760.25" style="stroke:#424242;stroke-width:1;stroke-linejoin:miter;stroke-miterlimit:10;"/><line style="stroke:#424242;stroke-width:1;" x1="217.2124" x2="151.4199" y1="563.9688" y2="563.9688"/><line style="stroke:#424242;stroke-width:1;" x1="151.4199" x2="151.4199" y1="563.9688" y2="585.9688"/><polygon fill="#424242" points="147.4199,575.9688,151.4199,585.9688,155.4199,575.9688,151.4199,579.9688" style="stroke:#424242;stroke-width:1;stroke-linejoin:miter;stroke-miterlimit:10;"/><line style="stroke:#424242;stroke-width:1;" x1="327.4185" x2="393.2109" y1="563.9688" y2="563.9688"/><line style="stroke:#424242;stroke-width:1;" x1="393.2109" x2="393.2109" y1="563.9688" y2="585.9688"/><polygon fill="#424242" points="389.2109,575.9688,393.2109,585.9688,397.2109,575.9688,393.2109,579.9688" style="stroke:#424242;stroke-width:1;stroke-linejoin:miter;stroke-miterlimit:10;"/><line style="stroke:#424242;stroke-width:1;" x1="151.4199" x2="151.4199" y1="746.3438" y2="819.3438"/><line style="stroke:#424242;stroke-width:1;" x1="151.4199" x2="260.3154" y1="819.3438" y2="819.3438"/><polygon fill="#424242" points="250.3154,815.3438,260.3154,819.3438,250.3154,823.3438,254.3154,819.3438" style="stroke:#424242;stroke-width:1;stroke-linejoin:miter;stroke-miterlimit:10;"/><line style="stroke:#424242;stroke-width:1;" x1="393.2109" x2="393.2109" y1="801.3438" y2="819.3438"/><line style="stroke:#424242;stroke-width:1;" x1="393.2109" x2="284.3154" y1="819.3438" y2="819.3438"/><polygon fill="#424242" points="294.3154,815.3438,284.3154,819.3438,294.3154,823.3438,290.3154,819.3438" style="stroke:#424242;stroke-width:1;stroke-linejoin:miter;stroke-miterlimit:10;"/><line style="stroke:#424242;stroke-width:1;" x1="272.3154" x2="272.3154" y1="531.9688" y2="551.9688"/><polygon fill="#424242" points="268.3154,541.9688,272.3154,551.9688,276.3154,541.9688,272.3154,545.9688" style="stroke:#424242;stroke-width:1;stroke-linejoin:miter;stroke-miterlimit:10;"/><line style="stroke:#424242;stroke-width:1;" x1="272.3154" x2="272.3154" y1="831.3438" y2="851.3438"/><polygon fill="#424242" points="268.3154,841.3438,272.3154,851.3438,276.3154,841.3438,272.3154,845.3438" style="stroke:#424242;stroke-width:1;stroke-linejoin:miter;stroke-miterlimit:10;"/><line style="stroke:#424242;stroke-width:1;" x1="272.3154" x2="272.3154" y1="886.4375" y2="906.4375"/><polygon fill="#424242" points="268.3154,896.4375,272.3154,906.4375,276.3154,896.4375,272.3154,900.4375" style="stroke:#424242;stroke-width:1;stroke-linejoin:miter;stroke-miterlimit:10;"/><line style="stroke:#424242;stroke-width:1;" x1="272.3154" x2="272.3154" y1="941.5313" y2="961.5313"/><polygon fill="#424242" points="268.3154,951.5313,272.3154,961.5313,276.3154,951.5313,272.3154,955.5313" style="stroke:#424242;stroke-width:1;stroke-linejoin:miter;stroke-miterlimit:10;"/><line style="stroke:#424242;stroke-width:1;" x1="172.9326" x2="172.9326" y1="1085.7188" y2="1105.7188"/><polygon fill="#424242" points="168.9326,1095.7188,172.9326,1105.7188,176.9326,1095.7188,172.9326,1099.7188" style="stroke:#424242;stroke-width:1;stroke-linejoin:miter;stroke-miterlimit:10;"/><line style="stroke:#424242;stroke-width:1;" x1="371.6982" x2="371.6982" y1="1085.7188" y2="1105.7188"/><polygon fill="#424242" points="367.6982,1095.7188,371.6982,1105.7188,375.6982,1095.7188,371.6982,1099.7188" style="stroke:#424242;stroke-width:1;stroke-linejoin:miter;stroke-miterlimit:10;"/><line style="stroke:#424242;stroke-width:1;" x1="204.0613" x2="172.9326" y1="1028.625" y2="1028.625"/><line style="stroke:#424242;stroke-width:1;" x1="172.9326" x2="172.9326" y1="1028.625" y2="1050.625"/><polygon fill="#424242" points="168.9326,1040.625,172.9326,1050.625,176.9326,1040.625,172.9326,1044.625" style="stroke:#424242;stroke-width:1;stroke-linejoin:miter;stroke-miterlimit:10;"/><line style="stroke:#424242;stroke-width:1;" x1="340.5696" x2="371.6982" y1="1028.625" y2="1028.625"/><line style="stroke:#424242;stroke-width:1;" x1="371.6982" x2="371.6982" y1="1028.625" y2="1050.625"/><polygon fill="#424242" points="367.6982,1040.625,371.6982,1050.625,375.6982,1040.625,371.6982,1044.625" style="stroke:#424242;stroke-width:1;stroke-linejoin:miter;stroke-miterlimit:10;"/><line style="stroke:#424242;stroke-width:1;" x1="172.9326" x2="172.9326" y1="1140.8125" y2="1158.8125"/><line style="stroke:#424242;stroke-width:1;" x1="172.9326" x2="260.3154" y1="1158.8125" y2="1158.8125"/><polygon fill="#424242" points="250.3154,1154.8125,260.3154,1158.8125,250.3154,1162.8125,254.3154,1158.8125" style="stroke:#424242;stroke-width:1;stroke-linejoin:miter;stroke-miterlimit:10;"/><line style="stroke:#424242;stroke-width:1;" x1="371.6982" x2="371.6982" y1="1140.8125" y2="1158.8125"/><line style="stroke:#424242;stroke-width:1;" x1="371.6982" x2="284.3154" y1="1158.8125" y2="1158.8125"/><polygon fill="#424242" points="294.3154,1154.8125,284.3154,1158.8125,294.3154,1162.8125,290.3154,1158.8125" style="stroke:#424242;stroke-width:1;stroke-linejoin:miter;stroke-miterlimit:10;"/><line style="stroke:#424242;stroke-width:1;" x1="272.3154" x2="272.3154" y1="996.625" y2="1016.625"/><polygon fill="#424242" points="268.3154,1006.625,272.3154,1016.625,276.3154,1006.625,272.3154,1010.625" style="stroke:#424242;stroke-width:1;stroke-linejoin:miter;stroke-miterlimit:10;"/><line style="stroke:#424242;stroke-width:1;" x1="272.3154" x2="272.3154" y1="1170.8125" y2="1190.8125"/><polygon fill="#424242" points="268.3154,1180.8125,272.3154,1190.8125,276.3154,1180.8125,272.3154,1184.8125" style="stroke:#424242;stroke-width:1;stroke-linejoin:miter;stroke-miterlimit:10;"/><?plantuml-src VLJlJzj03FsUl-B4jAb8iD4o66h5fhOKiLyI0lPjKcKID_5okSlkVB1gsly-Ntg4TKWq7zBQpy_FzbDzJQO51uswXRmkdGscc5jjdNfnleXFvdi4v4ntn6lrErFocVrVi3Wy7vsVRNBM5UXIV7XqV3G_wE9Jv-nz2hyTnQSBNpCuJk7HujtPuIQywAddnwEJqKds9ykOMAEQ1WSpX21YPX_LlZeZAAF4QTr91F_TN5ABcenW3MZovDMqTMGTPPcFxR9iV8ccB8C1rQ316epQkGgcmwy5lpF9nbzay3lK0cX0iAILhnsrwdBDbJKJuVWQW5NhR15oNkQsG7LT8VBmTUxl9YdD3eoFsxF6RwMpyGoTfohsDj20gcNSHhsIjn1rhFKawcJOxb5Z_rlgC39zHYbjRHsvDWrhJ-eMNG4UN8pcmRDjq2sf4D9hS6HA9KkAaqcwa6t8wxqQzfqpMgb1etynca8nIe6iJd_OLLoXKOCrx7Pt6YzCKYLzVmZT0zVDu-0RY9ji2Zw1T8sQG9To4fRHqtMa7vcb3srh7PyEzuvUxgQQ2_2aknhlRKuGMPSkQFHTVj0WEyfFSsjM9Frpt5EHYYk7lhAwE1qUH2xK7jM0gO0wgRyW3g9vk4-CZKTMwpY2Z-EMaot8w3b8Bu_5d2PkNinJRHCyYfCZQrgnw345hUH-trpWxVB-S16uzq_jWoN0CEOe8NuZIOy_WtoDtkYyrDld9eZ_dsujMJ2UMBmJm2LNAnzgZ_xfbUV0OcPjouH8errXGGvpVZXwYnvC3tcwxaSQb7y3zonBGgGTYNtRx2y0?></g></svg>