<svg xmlns="http://www.w3.org/2000/svg" xmlns:xlink="http://www.w3.org/1999/xlink" contentStyleType="text/css" data-diagram-type="DESCRIPTION" height="720px" preserveAspectRatio="none" style="width:1567px;height:720px;background:#FEFEFE;" version="1.1" viewBox="0 0 1567 720" width="1567px" zoomAndPan="magnify"><?plantuml 1.2026.6?><defs/><g><rect fill="#FEFEFE" height="720" style="stroke:none;stroke-width:1;" width="1567" x="0" y="0"/><g class="title" data-source-line="13"><text fill="#000000" font-family="sans-serif" font-size="14" font-weight="700" lengthAdjust="spacing" textLength="241.9238" x="659.0381" y="24.5332">AuraBeauty BI - Diagram Komponen</text></g><!--cluster Lapisan Klien--><g class="cluster" data-qualified-name="Lapisan Klien" data-source-line="15" id="ent0001"><path d="M30.5,477.1094 L122.5205,477.1094 A3.75,3.75 0 0 1 125.0205,479.6094 L132.0205,500.7188 L181.5,500.7188 A2.5,2.5 0 0 1 184,503.2188 L184,702.6094 A2.5,2.5 0 0 1 181.5,705.1094 L30.5,705.1094 A2.5,2.5 0 0 1 28,702.6094 L28,479.6094 A2.5,2.5 0 0 1 30.5,477.1094" fill="#F5F5F5" style="stroke:#424242;stroke-width:1.5;"/><line style="stroke:#424242;stroke-width:1.5;" x1="28" x2="132.0205" y1="500.7188" y2="500.7188"/><text fill="#000000" font-family="sans-serif" font-size="14" font-weight="700" lengthAdjust="spacing" textLength="91.0205" x="32" y="493.6426">Lapisan Klien</text></g><!--cluster Lapisan Aplikasi--><g class="cluster" data-qualified-name="Lapisan Aplikasi" data-source-line="20" id="ent0004"><path d="M8.5,44.6094 L119.9824,44.6094 A3.75,3.75 0 0 1 122.4824,47.1094 L129.4824,68.2188 L270.5,68.2188 A2.5,2.5 0 0 1 273,70.7188 L273,424.6094 A2.5,2.5 0 0 1 270.5,427.1094 L8.5,427.1094 A2.5,2.5 0 0 1 6,424.6094 L6,47.1094 A2.5,2.5 0 0 1 8.5,44.6094" fill="#F5F5F5" style="stroke:#424242;stroke-width:1.5;"/><line style="stroke:#424242;stroke-width:1.5;" x1="6" x2="129.4824" y1="68.2188" y2="68.2188"/><text fill="#000000" font-family="sans-serif" font-size="14" font-weight="700" lengthAdjust="spacing" textLength="110.4824" x="10" y="61.1426">Lapisan Aplikasi</text></g><!--cluster Mesin Analitik--><g class="cluster" data-qualified-name="Mesin Analitik" data-source-line="27" id="ent0009"><path d="M299.5,318.6094 L394.6309,318.6094 A3.75,3.75 0 0 1 397.1309,321.1094 L404.1309,342.2188 L679.5,342.2188 A2.5,2.5 0 0 1 682,344.7188 L682,574.6094 A2.5,2.5 0 0 1 679.5,577.1094 L299.5,577.1094 A2.5,2.5 0 0 1 297,574.6094 L297,321.1094 A2.5,2.5 0 0 1 299.5,318.6094" fill="#F5F5F5" style="stroke:#424242;stroke-width:1.5;"/><line style="stroke:#424242;stroke-width:1.5;" x1="297" x2="404.1309" y1="342.2188" y2="342.2188"/><text fill="#000000" font-family="sans-serif" font-size="14" font-weight="700" lengthAdjust="spacing" textLength="94.1309" x="301" y="335.1426">Mesin Analitik</text></g><!--cluster Lapisan Data--><g class="cluster" data-qualified-name="Lapisan Data" data-source-line="34" id="ent0014"><path d="M708.5,477.1094 L796.6377,477.1094 A3.75,3.75 0 0 1 799.1377,479.6094 L806.1377,500.7188 L1549.5,500.7188 A2.5,2.5 0 0 1 1552,503.2188 L1552,574.6094 A2.5,2.5 0 0 1 1549.5,577.1094 L708.5,577.1094 A2.5,2.5 0 0 1 706,574.6094 L706,479.6094 A2.5,2.5 0 0 1 708.5,477.1094" fill="#F5F5F5" style="stroke:#424242;stroke-width:1.5;"/><line style="stroke:#424242;stroke-width:1.5;" x1="706" x2="806.1377" y1="500.7188" y2="500.7188"/><text fill="#000000" font-family="sans-serif" font-size="14" font-weight="700" lengthAdjust="spacing" textLength="87.1377" x="710" y="493.6426">Lapisan Data</text></g><!--entity Browser--><g class="entity" data-qualified-name="Lapisan Klien.Browser" data-source-line="16" id="ent0002"><rect fill="#E3F2FD" height="47.6094" rx="2.5" ry="2.5" style="stroke:#1565C0;stroke-width:0.5;" width="124.0205" x="44" y="513.1094"/><rect fill="#E3F2FD" height="10" style="stroke:#1565C0;stroke-width:0.5;" width="15" x="148.0205" y="518.1094"/><rect fill="#E3F2FD" height="2" style="stroke:#1565C0;stroke-width:0.5;" width="4" x="146.0205" y="520.1094"/><rect fill="#E3F2FD" height="2" style="stroke:#1565C0;stroke-width:0.5;" width="4" x="146.0205" y="524.1094"/><text fill="#000000" font-family="sans-serif" font-size="14" lengthAdjust="spacing" textLength="84.0205" x="59" y="547.6426">Browser Web</text></g><!--entity ChartJS--><g class="entity" data-qualified-name="Lapisan Klien.ChartJS" data-source-line="17" id="ent0003"><rect fill="#E3F2FD" height="47.6094" rx="2.5" ry="2.5" style="stroke:#1565C0;stroke-width:0.5;" width="122.4551" x="44" y="641.1094"/><rect fill="#E3F2FD" height="10" style="stroke:#1565C0;stroke-width:0.5;" width="15" x="146.4551" y="646.1094"/><rect fill="#E3F2FD" height="2" style="stroke:#1565C0;stroke-width:0.5;" width="4" x="144.4551" y="648.1094"/><rect fill="#E3F2FD" height="2" style="stroke:#1565C0;stroke-width:0.5;" width="4" x="144.4551" y="652.1094"/><text fill="#000000" font-family="sans-serif" font-size="14" lengthAdjust="spacing" textLength="82.4551" x="59" y="675.6426">Chart.js CDN</text></g><!--entity Laravel--><g class="entity" data-qualified-name="Lapisan Aplikasi.Laravel" data-source-line="21" id="ent0005"><rect fill="#E3F2FD" height="47.6094" rx="2.5" ry="2.5" style="stroke:#1565C0;stroke-width:0.5;" width="116.2686" x="141" y="80.6094"/><rect fill="#E3F2FD" height="10" style="stroke:#1565C0;stroke-width:0.5;" width="15" x="237.2686" y="85.6094"/><rect fill="#E3F2FD" height="2" style="stroke:#1565C0;stroke-width:0.5;" width="4" x="235.2686" y="87.6094"/><rect fill="#E3F2FD" height="2" style="stroke:#1565C0;stroke-width:0.5;" width="4" x="235.2686" y="91.6094"/><text fill="#000000" font-family="sans-serif" font-size="14" lengthAdjust="spacing" textLength="76.2686" x="156" y="115.1426">Laravel 11.x</text></g><!--entity Controller--><g class="entity" data-qualified-name="Lapisan Aplikasi.Controller" data-source-line="22" id="ent0006"><rect fill="#E3F2FD" height="47.6094" rx="2.5" ry="2.5" style="stroke:#1565C0;stroke-width:0.5;" width="156.71" x="99.5" y="206.6094"/><rect fill="#E3F2FD" height="10" style="stroke:#1565C0;stroke-width:0.5;" width="15" x="236.21" y="211.6094"/><rect fill="#E3F2FD" height="2" style="stroke:#1565C0;stroke-width:0.5;" width="4" x="234.21" y="213.6094"/><rect fill="#E3F2FD" height="2" style="stroke:#1565C0;stroke-width:0.5;" width="4" x="234.21" y="217.6094"/><text fill="#000000" font-family="sans-serif" font-size="14" lengthAdjust="spacing" textLength="116.71" x="114.5" y="241.1426">AnalyticsController</text></g><!--entity Routes--><g class="entity" data-qualified-name="Lapisan Aplikasi.Routes" data-source-line="23" id="ent0007"><rect fill="#E3F2FD" height="47.6094" rx="2.5" ry="2.5" style="stroke:#1565C0;stroke-width:0.5;" width="84.3584" x="22" y="80.6094"/><rect fill="#E3F2FD" height="10" style="stroke:#1565C0;stroke-width:0.5;" width="15" x="86.3584" y="85.6094"/><rect fill="#E3F2FD" height="2" style="stroke:#1565C0;stroke-width:0.5;" width="4" x="84.3584" y="87.6094"/><rect fill="#E3F2FD" height="2" style="stroke:#1565C0;stroke-width:0.5;" width="4" x="84.3584" y="91.6094"/><text fill="#000000" font-family="sans-serif" font-size="14" lengthAdjust="spacing" textLength="44.3584" x="37" y="115.1426">Routes</text></g><!--entity View--><g class="entity" data-qualified-name="Lapisan Aplikasi.View" data-source-line="24" id="ent0008"><rect fill="#E3F2FD" height="65.2188" rx="2.5" ry="2.5" style="stroke:#1565C0;stroke-width:0.5;" width="144.2959" x="96" y="346.1094"/><rect fill="#E3F2FD" height="10" style="stroke:#1565C0;stroke-width:0.5;" width="15" x="220.2959" y="351.1094"/><rect fill="#E3F2FD" height="2" style="stroke:#1565C0;stroke-width:0.5;" width="4" x="218.2959" y="353.1094"/><rect fill="#E3F2FD" height="2" style="stroke:#1565C0;stroke-width:0.5;" width="4" x="218.2959" y="357.1094"/><text fill="#000000" font-family="sans-serif" font-size="14" lengthAdjust="spacing" textLength="97.2754" x="111" y="380.6426">Tampilan Blade</text><text fill="#000000" font-family="sans-serif" font-size="14" lengthAdjust="spacing" textLength="104.2959" x="111" y="398.252">apriori.blade.php</text></g><!--entity Python--><g class="entity" data-qualified-name="Mesin Analitik.Python" data-source-line="28" id="ent0010"><rect fill="#E3F2FD" height="47.6094" rx="2.5" ry="2.5" style="stroke:#1565C0;stroke-width:0.5;" width="162.1719" x="504" y="354.6094"/><rect fill="#E3F2FD" height="10" style="stroke:#1565C0;stroke-width:0.5;" width="15" x="646.1719" y="359.6094"/><rect fill="#E3F2FD" height="2" style="stroke:#1565C0;stroke-width:0.5;" width="4" x="644.1719" y="361.6094"/><rect fill="#E3F2FD" height="2" style="stroke:#1565C0;stroke-width:0.5;" width="4" x="644.1719" y="365.6094"/><text fill="#000000" font-family="sans-serif" font-size="14" lengthAdjust="spacing" textLength="122.1719" x="519" y="389.1426">Python 3.x Runtime</text></g><!--entity Script--><g class="entity" data-qualified-name="Mesin Analitik.Script" data-source-line="29" id="ent0011"><rect fill="#E3F2FD" height="47.6094" rx="2.5" ry="2.5" style="stroke:#1565C0;stroke-width:0.5;" width="155.9443" x="313" y="354.6094"/><rect fill="#E3F2FD" height="10" style="stroke:#1565C0;stroke-width:0.5;" width="15" x="448.9443" y="359.6094"/><rect fill="#E3F2FD" height="2" style="stroke:#1565C0;stroke-width:0.5;" width="4" x="446.9443" y="361.6094"/><rect fill="#E3F2FD" height="2" style="stroke:#1565C0;stroke-width:0.5;" width="4" x="446.9443" y="365.6094"/><text fill="#000000" font-family="sans-serif" font-size="14" lengthAdjust="spacing" textLength="115.9443" x="328" y="389.1426">apriori_analysis.py</text></g><!--entity Mlxtend--><g class="entity" data-qualified-name="Mesin Analitik.Mlxtend" data-source-line="30" id="ent0012"><rect fill="#E3F2FD" height="47.6094" rx="2.5" ry="2.5" style="stroke:#1565C0;stroke-width:0.5;" width="143.4961" x="489.5" y="513.1094"/><rect fill="#E3F2FD" height="10" style="stroke:#1565C0;stroke-width:0.5;" width="15" x="612.9961" y="518.1094"/><rect fill="#E3F2FD" height="2" style="stroke:#1565C0;stroke-width:0.5;" width="4" x="610.9961" y="520.1094"/><rect fill="#E3F2FD" height="2" style="stroke:#1565C0;stroke-width:0.5;" width="4" x="610.9961" y="524.1094"/><text fill="#000000" font-family="sans-serif" font-size="14" lengthAdjust="spacing" textLength="103.4961" x="504.5" y="547.6426">Pustaka mlxtend</text></g><!--entity Native--><g class="entity" data-qualified-name="Mesin Analitik.Native" data-source-line="31" id="ent0013"><rect fill="#E3F2FD" height="47.6094" rx="2.5" ry="2.5" style="stroke:#1565C0;stroke-width:0.5;" width="135.7031" x="318" y="513.1094"/><rect fill="#E3F2FD" height="10" style="stroke:#1565C0;stroke-width:0.5;" width="15" x="433.7031" y="518.1094"/><rect fill="#E3F2FD" height="2" style="stroke:#1565C0;stroke-width:0.5;" width="4" x="431.7031" y="520.1094"/><rect fill="#E3F2FD" height="2" style="stroke:#1565C0;stroke-width:0.5;" width="4" x="431.7031" y="524.1094"/><text fill="#000000" font-family="sans-serif" font-size="14" lengthAdjust="spacing" textLength="95.7031" x="333" y="547.6426">Fallback Native</text></g><!--entity SQLite--><g class="entity" data-qualified-name="Lapisan Data.SQLite" data-source-line="35" id="ent0015"><rect fill="#E3F2FD" height="47.6094" rx="2.5" ry="2.5" style="stroke:#1565C0;stroke-width:0.5;" width="146.6201" x="1388.5" y="513.1094"/><rect fill="#E3F2FD" height="10" style="stroke:#1565C0;stroke-width:0.5;" width="15" x="1515.1201" y="518.1094"/><rect fill="#E3F2FD" height="2" style="stroke:#1565C0;stroke-width:0.5;" width="4" x="1513.1201" y="520.1094"/><rect fill="#E3F2FD" height="2" style="stroke:#1565C0;stroke-width:0.5;" width="4" x="1513.1201" y="524.1094"/><text fill="#000000" font-family="sans-serif" font-size="14" lengthAdjust="spacing" textLength="106.6201" x="1403.5" y="547.6426">Database SQLite</text></g><!--entity ProductsCSV--><g class="entity" data-qualified-name="Lapisan Data.ProductsCSV" data-source-line="36" id="ent0016"><rect fill="#E3F2FD" height="47.6094" rx="2.5" ry="2.5" style="stroke:#1565C0;stroke-width:0.5;" width="197.9922" x="947" y="513.1094"/><rect fill="#E3F2FD" height="10" style="stroke:#1565C0;stroke-width:0.5;" width="15" x="1124.9922" y="518.1094"/><rect fill="#E3F2FD" height="2" style="stroke:#1565C0;stroke-width:0.5;" width="4" x="1122.9922" y="520.1094"/><rect fill="#E3F2FD" height="2" style="stroke:#1565C0;stroke-width:0.5;" width="4" x="1122.9922" y="524.1094"/><text fill="#000000" font-family="sans-serif" font-size="14" lengthAdjust="spacing" textLength="157.9922" x="962" y="547.6426">product_code Sheet1.csv</text></g><!--entity TransactionsCSV--><g class="entity" data-qualified-name="Lapisan Data.TransactionsCSV" data-source-line="37" id="ent0017"><rect fill="#E3F2FD" height="47.6094" rx="2.5" ry="2.5" style="stroke:#1565C0;stroke-width:0.5;" width="188.6338" x="722.5" y="513.1094"/><rect fill="#E3F2FD" height="10" style="stroke:#1565C0;stroke-width:0.5;" width="15" x="891.1338" y="518.1094"/><rect fill="#E3F2FD" height="2" style="stroke:#1565C0;stroke-width:0.5;" width="4" x="889.1338" y="520.1094"/><rect fill="#E3F2FD" height="2" style="stroke:#1565C0;stroke-width:0.5;" width="4" x="889.1338" y="524.1094"/><text fill="#000000" font-family="sans-serif" font-size="14" lengthAdjust="spacing" textLength="148.6338" x="737.5" y="547.6426">transactions Sheet1.csv</text></g><!--entity RulesCSV--><g class="entity" data-qualified-name="Lapisan Data.RulesCSV" data-source-line="38" id="ent0018"><rect fill="#E3F2FD" height="47.6094" rx="2.5" ry="2.5" style="stroke:#1565C0;stroke-width:0.5;" width="173.0615" x="1180.5" y="513.1094"/><rect fill="#E3F2FD" height="10" style="stroke:#1565C0;stroke-width:0.5;" width="15" x="1333.5615" y="518.1094"/><rect fill="#E3F2FD" height="2" style="stroke:#1565C0;stroke-width:0.5;" width="4" x="1331.5615" y="520.1094"/><rect fill="#E3F2FD" height="2" style="stroke:#1565C0;stroke-width:0.5;" width="4" x="1331.5615" y="524.1094"/><text fill="#000000" font-family="sans-serif" font-size="14" lengthAdjust="spacing" textLength="133.0615" x="1195.5" y="547.6426">association_rules.csv</text></g><!--link Browser to Routes--><g class="link" data-entity-1="ent0002" data-entity-2="ent0007" data-link-type="dependency" data-source-line="41" id="lnk19"><path d="M98.94,512.9994 C92.88,492.6194 84.17,462.0694 78,435.1094 C62.9,369.0794 52.11,352.3194 54,284.6094 C55.56,228.6094 59.5161,167.8468 61.9361,133.7468" fill="none" id="Browser-to-Routes" style="stroke:#424242;stroke-width:1;"/><polygon fill="#424242" points="62.29,128.7594,57.6629,137.4536,61.9361,133.7468,65.6429,138.02,62.29,128.7594" style="stroke:#424242;stroke-width:1;stroke-linejoin:miter;stroke-miterlimit:10;"/><text fill="#000000" font-family="sans-serif" font-size="13" lengthAdjust="spacing" textLength="110.5063" x="55" y="299.1045">HTTP GET / POST</text></g><!--link Routes to Controller--><g class="link" data-entity-1="ent0007" data-entity-2="ent0006" data-link-type="dependency" data-source-line="42" id="lnk20"><path d="M85.18,128.6394 C105.52,150.7794 132.7258,180.3688 153.1658,202.5988" fill="none" id="Routes-to-Controller" style="stroke:#424242;stroke-width:1;"/><polygon fill="#424242" points="156.55,206.2794,153.4029,196.9469,153.1658,202.5988,147.5139,202.3617,156.55,206.2794" style="stroke:#424242;stroke-width:1;stroke-linejoin:miter;stroke-miterlimit:10;"/><text fill="#000000" font-family="sans-serif" font-size="13" lengthAdjust="spacing" textLength="48.4199" x="129" y="173.1045">dispatch</text></g><!--link Controller to View--><g class="link" data-entity-1="ent0006" data-entity-2="ent0008" data-link-type="dependency" data-source-line="43" id="lnk21"><path d="M176.42,254.7394 C174.73,279.3494 172.3914,313.441 170.5114,340.911" fill="none" id="Controller-to-View" style="stroke:#424242;stroke-width:1;"/><polygon fill="#424242" points="170.17,345.8994,174.7752,337.1935,170.5114,340.911,166.7938,336.6473,170.17,345.8994" style="stroke:#424242;stroke-width:1;stroke-linejoin:miter;stroke-miterlimit:10;"/><text fill="#000000" font-family="sans-serif" font-size="13" lengthAdjust="spacing" textLength="37.5781" x="176" y="299.1045">render</text></g><!--link View to Browser--><g class="link" data-entity-1="ent0008" data-entity-2="ent0002" data-link-type="dependency" data-source-line="44" id="lnk22"><path d="M155.45,411.2794 C143.56,441.2894 127.8209,481.0206 117.1409,507.9906" fill="none" id="View-to-Browser" style="stroke:#424242;stroke-width:1;"/><polygon fill="#424242" points="115.3,512.6394,122.3326,505.7443,117.1409,507.9906,114.8946,502.7989,115.3,512.6394" style="stroke:#424242;stroke-width:1;stroke-linejoin:miter;stroke-miterlimit:10;"/><text fill="#000000" font-family="sans-serif" font-size="13" lengthAdjust="spacing" textLength="65.3745" x="144" y="457.6045">HTML + JS</text></g><!--link Browser to ChartJS--><g class="link" data-entity-1="ent0002" data-entity-2="ent0003" data-link-type="dependency" data-source-line="45" id="lnk23"><path d="M105.82,561.2194 C105.64,583.8094 105.4097,613.0295 105.2297,635.7195" fill="none" id="Browser-to-ChartJS" style="stroke:#424242;stroke-width:1;"/><polygon fill="#424242" points="105.19,640.7194,109.2613,631.7514,105.2297,635.7195,101.2615,631.6879,105.19,640.7194" style="stroke:#424242;stroke-width:1;stroke-linejoin:miter;stroke-miterlimit:10;"/><text fill="#000000" font-family="sans-serif" font-size="13" lengthAdjust="spacing" textLength="64.3018" x="107" y="607.6045">muat grafik</text></g><!--link Controller to Script--><g class="link" data-entity-1="ent0006" data-entity-2="ent0011" data-link-type="dependency" data-source-line="47" id="lnk24"><path d="M211.75,254.7394 C251.63,282.0794 313.4656,324.4628 353.2856,351.7528" fill="none" id="Controller-to-Script" style="stroke:#424242;stroke-width:1;"/><polygon fill="#424242" points="357.41,354.5794,352.2474,346.192,353.2856,351.7528,347.7249,352.791,357.41,354.5794" style="stroke:#424242;stroke-width:1;stroke-linejoin:miter;stroke-miterlimit:10;"/><text fill="#000000" font-family="sans-serif" font-size="13" lengthAdjust="spacing" textLength="81.6309" x="280" y="299.1045">Process::run()</text></g><!--link Script to ProductsCSV--><g class="link" data-entity-1="ent0011" data-entity-2="ent0016" data-link-type="dependency" data-source-line="48" id="lnk25"><path d="M421.74,402.8094 C439.52,414.8394 462.89,428.3894 486,435.1094 C531.48,448.3394 651.77,439.5594 699,443.1094 C801.58,450.8194 831.23,437.1094 929,469.1094 C959.7,479.1594 987.1412,495.0638 1009.7512,510.1538" fill="none" id="Script-to-ProductsCSV" style="stroke:#424242;stroke-width:1;"/><polygon fill="#424242" points="1013.91,512.9294,1008.6446,504.6062,1009.7512,510.1538,1004.2036,511.2603,1013.91,512.9294" style="stroke:#424242;stroke-width:1;stroke-linejoin:miter;stroke-miterlimit:10;"/><text fill="#000000" font-family="sans-serif" font-size="13" lengthAdjust="spacing" textLength="28.1899" x="902" y="457.6045">baca</text></g><!--link Script to TransactionsCSV--><g class="link" data-entity-1="ent0011" data-entity-2="ent0017" data-link-type="dependency" data-source-line="49" id="lnk26"><path d="M422.25,402.7794 C440.01,414.6394 463.19,428.0394 486,435.1094 C532.82,449.6294 547.8,434.1894 596,443.1094 C635.26,450.3794 644.88,454.4094 682,469.1094 C713.99,481.7794 744.3192,496.7734 770.5492,510.6334" fill="none" id="Script-to-TransactionsCSV" style="stroke:#424242;stroke-width:1;"/><polygon fill="#424242" points="774.97,512.9694,768.8814,505.228,770.5492,510.6334,765.1438,512.3013,774.97,512.9694" style="stroke:#424242;stroke-width:1;stroke-linejoin:miter;stroke-miterlimit:10;"/><text fill="#000000" font-family="sans-serif" font-size="13" lengthAdjust="spacing" textLength="28.1899" x="662" y="457.6045">baca</text></g><!--link Script to Mlxtend--><g class="link" data-entity-1="ent0011" data-entity-2="ent0012" data-link-type="dependency" data-source-line="50" id="lnk27"><path d="M416.08,402.6994 C448.23,432.2894 499.9412,479.9032 532.1312,509.5332" fill="none" id="Script-to-Mlxtend" style="stroke:#424242;stroke-width:1;"/><polygon fill="#424242" points="535.81,512.9194,531.8972,503.8811,532.1312,509.5332,526.4792,509.7672,535.81,512.9194" style="stroke:#424242;stroke-width:1;stroke-linejoin:miter;stroke-miterlimit:10;"/><text fill="#000000" font-family="sans-serif" font-size="13" lengthAdjust="spacing" textLength="110.5762" x="477" y="457.6045">gunakan (opsional)</text></g><!--link Script to Native--><g class="link" data-entity-1="ent0011" data-entity-2="ent0013" data-link-type="dependency" data-source-line="51" id="lnk28"><path d="M390.26,402.6994 C389.32,432.2894 387.8502,478.2919 386.9002,507.9219" fill="none" id="Script-to-Native" style="stroke:#424242;stroke-width:1;"/><polygon fill="#424242" points="386.74,512.9194,391.0264,504.0522,386.9002,507.9219,383.0305,503.7958,386.74,512.9194" style="stroke:#424242;stroke-width:1;stroke-linejoin:miter;stroke-miterlimit:10;"/><text fill="#000000" font-family="sans-serif" font-size="13" lengthAdjust="spacing" textLength="44.0781" x="390" y="457.6045">fallback</text></g><!--link Script to RulesCSV--><g class="link" data-entity-1="ent0011" data-entity-2="ent0018" data-link-type="dependency" data-source-line="52" id="lnk29"><path d="M421.26,402.6994 C439.08,414.8494 462.64,428.5594 486,435.1094 C534.47,448.6894 888.77,439.7594 939,443.1094 C1039,449.7794 1068.65,435.3194 1163,469.1094 C1190.9,479.0994 1214.9664,494.7677 1234.8864,509.8777" fill="none" id="Script-to-RulesCSV" style="stroke:#424242;stroke-width:1;"/><polygon fill="#424242" points="1238.87,512.8994,1234.1169,504.2734,1234.8864,509.8777,1229.2821,510.6472,1238.87,512.8994" style="stroke:#424242;stroke-width:1;stroke-linejoin:miter;stroke-miterlimit:10;"/><text fill="#000000" font-family="sans-serif" font-size="13" lengthAdjust="spacing" textLength="23.1182" x="1137" y="457.6045">tulis</text></g><!--link Controller to RulesCSV--><g class="link" data-entity-1="ent0006" data-entity-2="ent0018" data-link-type="dependency" data-source-line="54" id="lnk30"><path d="M256.81,232.8194 C432.14,238.7094 863.11,271.0294 1169,443.1094 C1200.89,461.0494 1227.0606,487.8592 1245.1706,509.0392" fill="none" id="Controller-to-RulesCSV" style="stroke:#424242;stroke-width:1;"/><polygon fill="#424242" points="1248.42,512.8394,1245.6113,503.3995,1245.1706,509.0392,1239.531,508.5985,1248.42,512.8394" style="stroke:#424242;stroke-width:1;stroke-linejoin:miter;stroke-miterlimit:10;"/><text fill="#000000" font-family="sans-serif" font-size="13" lengthAdjust="spacing" textLength="28.1899" x="1143" y="384.1045">baca</text></g><!--link Laravel to SQLite--><g class="link" data-entity-1="ent0005" data-entity-2="ent0015" data-link-type="dependency" data-source-line="55" id="lnk31"><path d="M257.25,108.3994 C413.87,117.8194 854.18,157.1194 1180,310.6094 C1290.87,362.8394 1393.4162,463.1844 1437.3262,509.4044" fill="none" id="Laravel-to-SQLite" style="stroke:#424242;stroke-width:1;"/><polygon fill="#424242" points="1440.77,513.0294,1437.4711,503.7494,1437.3262,509.4044,1431.6712,509.2595,1440.77,513.0294" style="stroke:#424242;stroke-width:1;stroke-linejoin:miter;stroke-miterlimit:10;"/><text fill="#000000" font-family="sans-serif" font-size="13" lengthAdjust="spacing" textLength="124.2935" x="1162" y="299.1045">session/auth (default)</text></g><?plantuml-src TLHDKnin3Btlhz3G2qo7fO7IGmwToGVf1mcbIOOUsWwZx9h4ZMDxB2-GwVI_LruxsoNG-6BfFUb9iZQqbjgYmmqii5WldQbqEJ3AE7WrkWWdeuPHc8qrMcWFlpFWNty_uk9iT3eQHiouKhZaxvo_En-ygVqzvyn3Shyz3IVxqvAmd1ANudy2e_DmdWiqcJ8llHBGgnps1LP-2_rFS0n3YSkG_Z9ra6KxeOCnMaceuL99eG-IyFS-Lqd2mJUn-0b8aEm83bReVFwBO32ygj7QyNaMz9_bxLabrqYoIJtcHk-5WaudVwoZaoEYFOrgwsL10wEzCqe95oKQC_AcflA2QYXUetkE6oiLo_OLbkA7HkkaSJ9V13EtArj7t4ZnyAJOYI39fRAsz7BTb7gzzIkZuIn_X6cblTo8EZow8oK9t6AecoJbTbjpPeMJrgSq5NbS8spKenUwhF59l4V229KAwmTNwELz58dN5qSwH8zDZS5O80cOVHrB7sFZDUBMcR8g_6rXIkQiXF2TlA3xs4Z4Q32xYMJlK1CMNXfD--Hv2si2aCWK4eFprbLAK4EV1Ylmk8FTDXqVlq-l1LtuE9zVmuUBEPp0zPVPF4j0uFnxREQLaYpwOfMrl84K7f5XnrFafQYjuDvf1O7965u3xsLRF-qguviAFV1dSIVNsNxo-7nCuX4LWgZRTPK-FCgIFr1QmsCUFn-sqRrflS186y38ijAy7XeEZINcetgY4nU1QNTfIzhWRieC-qf9UjP8Yr0NiFlwwYRhDM64k4CMFk4_Z1KSbk8EA-MFihy0?></g></svg>